<?xml version="1.0" encoding="utf-8"?>
<!-- Generator: Adobe Illustrator 16.0.0, SVG Export Plug-In . SVG Version: 6.00 Build 0)  -->
<!DOCTYPE svg PUBLIC "-//W3C//DTD SVG 1.1//EN" "http://www.w3.org/Graphics/SVG/1.1/DTD/svg11.dtd">
<svg version="1.1" xmlns="http://www.w3.org/2000/svg" xmlns:xlink="http://www.w3.org/1999/xlink" x="0px" y="0px" width="1440px"
	 height="600px" viewBox="0 0 1440 600" enable-background="new 0 0 1440 600" xml:space="preserve">
<g id="Layer_1">
	
		<line fill="none" stroke="#D1D3D4" stroke-width="4.1253" stroke-miterlimit="10" stroke-dasharray="6.8756" x1="1044.56" y1="137.515" x2="1184.402" y2="137.515"/>
	<circle fill="none" stroke="#E5E5E4" stroke-width="6.8756" stroke-miterlimit="10" cx="120.161" cy="136.883" r="69.675"/>
	
		<line fill-rule="evenodd" clip-rule="evenodd" fill="none" stroke="#E7E8E9" stroke-width="9.6258" stroke-miterlimit="10" x1="322.299" y1="135.942" x2="985.43" y2="137.298"/>
	<rect x="545.578" y="130.569" fill-rule="evenodd" clip-rule="evenodd" fill="#A7A9AC" width="5.981" height="2.32"/>
	<path fill-rule="evenodd" clip-rule="evenodd" fill="none" stroke="#A7A9AC" stroke-width="1.3751" stroke-miterlimit="10" d="
		M529.203,126.705c11.674,0.715,19.295-18.554,19.295,5.453"/>
	<rect x="362.062" y="130.569" fill-rule="evenodd" clip-rule="evenodd" fill="#A7A9AC" width="5.981" height="2.32"/>
	<path fill-rule="evenodd" clip-rule="evenodd" fill="none" stroke="#A7A9AC" stroke-width="1.3751" stroke-miterlimit="10" d="
		M345.687,126.705c11.675,0.715,19.296-18.554,19.296,5.453"/>
	<path fill-rule="evenodd" clip-rule="evenodd" fill="#A7AAAC" d="M350.908,110.677h-14.765c0.003,1.418,0.012,5.911,0.012,5.949
		c0,0.821-0.666,1.487-1.486,1.487s-1.486-0.666-1.486-1.487c0-0.01,0.002-4.525,0.002-5.949h-14.755
		c-0.558,0-1.009,0.453-1.009,1.009v43.006c0,0.557,0.452,1.009,1.009,1.009h32.478c0.557,0,1.009-0.453,1.009-1.009v-43.006
		C351.917,111.13,351.465,110.677,350.908,110.677z"/>
	<path fill-rule="evenodd" clip-rule="evenodd" fill="#A7AAAC" d="M535.71,110.821h-14.765c0.003,1.418,0.012,5.911,0.012,5.948
		c0,0.821-0.666,1.487-1.486,1.487c-0.821,0-1.485-0.666-1.485-1.487c0-0.009,0.001-4.525,0.002-5.948h-14.755
		c-0.559,0-1.01,0.452-1.01,1.009v43.006c0,0.556,0.451,1.009,1.01,1.009h32.477c0.557,0,1.009-0.453,1.009-1.009V111.83
		C536.72,111.272,536.268,110.821,535.71,110.821z"/>
	<g>
		
			<rect x="251.424" y="50.69" opacity="0.2" fill-rule="evenodd" clip-rule="evenodd" fill="#00AEEF" width="167.098" height="305.224"/>
		
			<rect x="257.672" y="57.209" opacity="0.15" fill-rule="evenodd" clip-rule="evenodd" fill="#00AEEF" width="154.628" height="292.229"/>
		<g opacity="0.6">
			
				<line fill-rule="evenodd" clip-rule="evenodd" fill="none" stroke="#FFFFFF" stroke-width="3.2694" stroke-miterlimit="10" x1="294.601" y1="44.612" x2="293.991" y2="357.303"/>
			
				<line fill-rule="evenodd" clip-rule="evenodd" fill="none" stroke="#FFFFFF" stroke-width="3.2694" stroke-miterlimit="10" x1="334.904" y1="44.69" x2="334.295" y2="357.382"/>
			
				<line fill-rule="evenodd" clip-rule="evenodd" fill="none" stroke="#FFFFFF" stroke-width="3.2694" stroke-miterlimit="10" x1="375.208" y1="44.768" x2="374.599" y2="357.463"/>
			
				<line fill-rule="evenodd" clip-rule="evenodd" fill="none" stroke="#FFFFFF" stroke-width="3.2694" stroke-miterlimit="10" x1="251.5" y1="103.506" x2="419.046" y2="103.834"/>
			
				<line fill-rule="evenodd" clip-rule="evenodd" fill="none" stroke="#FFFFFF" stroke-width="3.2694" stroke-miterlimit="10" x1="251.377" y1="166.841" x2="418.923" y2="167.168"/>
			
				<line fill-rule="evenodd" clip-rule="evenodd" fill="none" stroke="#FFFFFF" stroke-width="3.2694" stroke-miterlimit="10" x1="251.253" y1="230.174" x2="418.801" y2="230.5"/>
			
				<line fill-rule="evenodd" clip-rule="evenodd" fill="none" stroke="#FFFFFF" stroke-width="3.2694" stroke-miterlimit="10" x1="251.129" y1="293.508" x2="418.677" y2="293.834"/>
		</g>
	</g>
	<g>
		<polygon opacity="0.2" fill-rule="evenodd" clip-rule="evenodd" fill="#00AEEF" points="603.185,355.914 436.087,355.914 
			436.661,51.016 603.758,51.016 		"/>
		
			<rect x="442.885" y="56.906" opacity="0.15" fill-rule="evenodd" clip-rule="evenodd" fill="#00AEEF" width="154.078" height="292.532"/>
		<g opacity="0.6">
			
				<line fill-rule="evenodd" clip-rule="evenodd" fill="none" stroke="#FFFFFF" stroke-width="3.2694" stroke-miterlimit="10" x1="479.263" y1="44.612" x2="478.654" y2="357.303"/>
			
				<line fill-rule="evenodd" clip-rule="evenodd" fill="none" stroke="#FFFFFF" stroke-width="3.2694" stroke-miterlimit="10" x1="519.566" y1="44.69" x2="518.957" y2="357.382"/>
			
				<line fill-rule="evenodd" clip-rule="evenodd" fill="none" stroke="#FFFFFF" stroke-width="3.2694" stroke-miterlimit="10" x1="559.87" y1="44.768" x2="559.261" y2="357.463"/>
			
				<line fill-rule="evenodd" clip-rule="evenodd" fill="none" stroke="#FFFFFF" stroke-width="3.2694" stroke-miterlimit="10" x1="436.162" y1="103.506" x2="603.708" y2="103.834"/>
			
				<line fill-rule="evenodd" clip-rule="evenodd" fill="none" stroke="#FFFFFF" stroke-width="3.2694" stroke-miterlimit="10" x1="436.039" y1="166.841" x2="603.586" y2="167.168"/>
			
				<line fill-rule="evenodd" clip-rule="evenodd" fill="none" stroke="#FFFFFF" stroke-width="3.2694" stroke-miterlimit="10" x1="435.916" y1="230.174" x2="603.462" y2="230.5"/>
			
				<line fill-rule="evenodd" clip-rule="evenodd" fill="none" stroke="#FFFFFF" stroke-width="3.2694" stroke-miterlimit="10" x1="435.792" y1="293.508" x2="603.339" y2="293.834"/>
		</g>
	</g>
	<g id="Layer_2">
	</g>
	<g id="Layer_3">
		<g>
			<path fill="#C7C8CA" d="M1049.135,168.841c17.322,0.034,31.389-13.979,31.422-31.302c0.034-17.319-13.977-31.388-31.301-31.422
				L989.2,106c-17.32-0.036-31.39,13.981-31.423,31.299c-0.031,17.321,13.979,31.389,31.301,31.423L1049.135,168.841z"/>
			<path fill="#FFFFFF" stroke="#FFFFFF" stroke-width="2.3815" stroke-miterlimit="10" d="M1037.209,143.501
				c2.826,0.006,5.12-2.28,5.127-5.104c0.003-2.826-2.28-5.122-5.107-5.732l-35.922-0.071c-2.825,0.602-5.12,2.887-5.127,5.713
				c-0.006,2.824,2.283,5.122,5.109,5.125L1037.209,143.501z"/>
		</g>
		<g display="none">
			<polygon display="inline" fill="#A7AAAC" points="1011.924,149.609 1011.94,141.267 1013.367,141.271 1013.374,141.271 
				1013.374,141.263 1013.374,140.799 1013.374,140.791 1013.367,140.791 1011.217,140.787 1011.209,140.787 1011.209,140.793 
				1011.19,150.079 1011.19,150.087 1011.197,150.087 1013.35,150.092 1013.355,150.092 1013.355,150.084 1013.358,149.62 
				1013.358,149.612 1013.35,149.612 			"/>
			<polygon display="inline" fill="#A7AAAC" points="1023.492,140.818 1023.492,140.81 1023.485,140.81 1021.335,140.806 
				1021.326,140.806 1021.326,140.814 1021.326,141.278 1021.326,141.286 1021.335,141.286 1022.759,141.288 1022.743,149.63 
				1021.319,149.627 1021.31,149.627 1021.31,149.635 1021.31,150.1 1021.31,150.106 1021.315,150.106 1023.465,150.112 
				1023.473,150.112 1023.473,150.104 			"/>
		</g>
		<path display="none" fill="#A7AAAC" d="M1020.444,145.433c-0.037-0.009-0.081-0.011-0.111-0.013
			c0.03-0.001,0.074-0.002,0.111-0.011c0.072-0.012,0.629-0.158,0.629-0.158c0.006-0.001,0.007-0.005,0.007-0.009
			c0-0.004-0.001-0.009-0.007-0.01c0,0-0.557-0.148-0.629-0.161c-0.037-0.007-0.076-0.011-0.11-0.011
			c0.028-0.001,0.058-0.006,0.083-0.009c0.073-0.013,0.629-0.16,0.629-0.16c0.003,0,0.008-0.005,0.008-0.009
			c0-0.004-0.004-0.007-0.008-0.009c0,0-0.556-0.148-0.629-0.161c-0.032-0.006-0.069-0.009-0.099-0.01
			c0.104-0.021,0.62-0.157,0.62-0.157c0.003-0.001,0.006-0.004,0.006-0.008c0-0.004-0.002-0.009-0.004-0.01
			c0,0-0.557-0.149-0.632-0.163c-0.055-0.01-0.118-0.012-0.149-0.012c-0.022,0,0.007-0.003,0.039-0.011
			c0.075-0.012,0.63-0.159,0.63-0.159c0.004,0,0.005-0.004,0.008-0.008c0-0.004-0.004-0.007-0.008-0.009
			c0,0-0.555-0.148-0.627-0.162c-0.056-0.011-0.119-0.012-0.15-0.012c-0.063-0.001-0.117-0.001-0.159-0.002
			c0.027,0,0.062-0.002,0.091-0.009c0.075-0.013,0.632-0.158,0.632-0.158c0.004-0.001,0.008-0.004,0.008-0.009
			c0-0.004-0.004-0.008-0.008-0.009c0,0-0.554-0.149-0.632-0.162c-0.051-0.01-0.116-0.012-0.146-0.012c-0.054,0-0.096,0-0.131,0
			c0.012-0.002,0.027-0.003,0.041-0.005c0.071-0.014,0.628-0.161,0.628-0.161c0.003,0,0.006-0.004,0.006-0.007
			c0-0.004-0.003-0.009-0.006-0.009l-0.5-0.13c-0.062-0.016-0.111-0.028-0.128-0.032c-0.056-0.009-0.121-0.013-0.152-0.013
			c-0.044,0-0.146,0-0.283,0c0.03-0.001,0.066-0.003,0.1-0.009c0.073-0.013,0.631-0.159,0.631-0.159
			c0.004-0.001,0.006-0.004,0.006-0.01c0-0.003-0.004-0.007-0.006-0.009c0,0-0.557-0.148-0.631-0.161
			c-0.055-0.01-0.116-0.01-0.148-0.01c-0.066,0-0.237-0.001-0.442-0.001c0.004-0.002,0.01-0.002,0.015-0.003
			c0.073-0.012,0.63-0.159,0.63-0.159c0.005-0.002,0.007-0.006,0.007-0.009c0-0.004-0.002-0.008-0.007-0.008
			c0,0-0.554-0.15-0.629-0.163c-0.053-0.011-0.117-0.012-0.15-0.012c-0.091-0.001-0.297-0.001-0.517-0.001
			c0.186-0.047,0.426-0.11,0.426-0.11c0.006-0.002,0.008-0.006,0.008-0.01c0-0.003-0.002-0.006-0.008-0.009
			c0,0-0.409-0.107-0.481-0.12c-0.12-0.023-0.395-0.059-0.482-0.06c-0.247-0.001-0.274-0.001-0.274-0.001l0,0c0,0-0.027,0-0.273,0
			c-0.086-0.001-0.342,0.033-0.464,0.054c-0.074,0.014-0.489,0.122-0.489,0.122c-0.006,0.003-0.007,0.005-0.008,0.01
			c0,0.003,0.002,0.007,0.008,0.01c0,0,0.241,0.063,0.427,0.111c-0.221,0-0.425,0-0.518-0.001c-0.03,0-0.097,0.001-0.15,0.011
			c-0.075,0.013-0.629,0.161-0.629,0.161c-0.004,0-0.008,0.003-0.008,0.008c0,0.003,0.004,0.008,0.008,0.008
			c0,0,0.554,0.149,0.628,0.164c0.004,0,0.012,0,0.016,0.001c-0.208-0.001-0.376-0.001-0.443-0.001c-0.03,0-0.095,0.001-0.149,0.011
			c-0.073,0.014-0.63,0.159-0.63,0.159c-0.003,0.002-0.007,0.005-0.007,0.01c0,0.005,0.004,0.007,0.007,0.009
			c0,0,0.556,0.148,0.63,0.162c0.032,0.005,0.067,0.01,0.099,0.01c-0.135,0-0.239,0-0.281,0c-0.033,0-0.098,0.001-0.152,0.011
			c-0.018,0.004-0.065,0.015-0.13,0.029l-0.499,0.131c-0.006,0-0.008,0.004-0.008,0.008c0.002,0.002,0.002,0.007,0.008,0.009
			c0,0,0.557,0.148,0.629,0.163c0.012,0.002,0.024,0.003,0.039,0.004c-0.036,0-0.078,0-0.128,0c-0.033,0-0.098,0.002-0.153,0.011
			c-0.075,0.014-0.628,0.159-0.628,0.159c-0.006,0.002-0.009,0.005-0.009,0.009c0,0.005,0.003,0.01,0.009,0.01
			c0,0,0.553,0.147,0.628,0.162c0.032,0.005,0.064,0.007,0.095,0.008c-0.043,0-0.095,0-0.158,0c-0.031,0-0.097,0.001-0.152,0.011
			c-0.071,0.015-0.629,0.16-0.629,0.16c-0.006,0.002-0.008,0.005-0.008,0.01c0,0.005,0.006,0.009,0.008,0.009
			c0,0,0.556,0.147,0.629,0.161c0.035,0.006,0.062,0.011,0.039,0.011c-0.03,0-0.095,0.001-0.148,0.011
			c-0.074,0.014-0.631,0.16-0.631,0.16c-0.003,0.001-0.005,0.005-0.005,0.009c0,0.004,0.002,0.008,0.005,0.009
			c0,0,0.519,0.137,0.621,0.159c-0.03,0.002-0.066,0.004-0.099,0.01c-0.075,0.013-0.631,0.159-0.631,0.159
			c-0.005,0.002-0.008,0.005-0.008,0.011c0,0.004,0.003,0.007,0.008,0.008c0,0,0.555,0.148,0.631,0.161
			c0.022,0.005,0.047,0.007,0.071,0.009c0,0-0.003,0-0.008,0c-0.029,0-0.096,0.001-0.151,0.012
			c-0.074,0.013-0.627,0.159-0.627,0.159c-0.007,0.001-0.008,0.004-0.008,0.008c0,0.005,0.001,0.009,0.008,0.01
			c0,0,0.553,0.148,0.627,0.162c0.038,0.006,0.081,0.01,0.114,0.011c-0.033,0-0.076,0.002-0.114,0.009
			c-0.074,0.014-0.63,0.159-0.63,0.159c-0.004,0.002-0.008,0.006-0.008,0.01c0,0.004,0.004,0.008,0.008,0.011
			c0,0,0.556,0.148,0.63,0.161c0.055,0.011,0.119,0.011,0.151,0.011h0.006c-0.026,0.002-0.05,0.005-0.072,0.008
			c-0.072,0.014-0.628,0.16-0.628,0.16c-0.006,0.001-0.008,0.005-0.008,0.009c0,0.002,0.002,0.006,0.008,0.009
			c0,0,0.555,0.148,0.628,0.163c0.032,0.004,0.066,0.008,0.097,0.009c-0.101,0.022-0.617,0.158-0.617,0.158
			c-0.004,0.001-0.01,0.003-0.01,0.007c0,0.005,0.006,0.009,0.01,0.01c0,0,0.555,0.147,0.626,0.161
			c0.057,0.01,0.12,0.013,0.15,0.013c0.022,0-0.003,0.004-0.038,0.009c-0.072,0.014-0.632,0.16-0.632,0.16
			c-0.003,0-0.004,0.005-0.005,0.009c0,0.006,0.002,0.009,0.005,0.01c0,0,0.56,0.146,0.632,0.161c0.053,0.008,0.118,0.01,0.149,0.01
			c0.065,0,0.115,0,0.158,0c-0.028,0.003-0.062,0.004-0.093,0.011c-0.074,0.013-0.632,0.16-0.632,0.16
			c-0.004,0.001-0.005,0.004-0.005,0.007c0,0.006,0.001,0.01,0.005,0.011c0,0,0.558,0.148,0.632,0.161
			c0.053,0.01,0.116,0.013,0.147,0.013c0.04,0,0.073,0,0.102,0c-0.003,0-0.008,0-0.008,0c-0.075,0.015-0.632,0.161-0.632,0.161
			c-0.005,0-0.005,0.004-0.008,0.008c0,0.004,0.003,0.006,0.008,0.011l0.5,0.129c0.063,0.015,0.111,0.027,0.131,0.031
			c0.053,0.009,0.117,0.012,0.146,0.012c0.05,0,0.165,0,0.316,0.001c-0.032,0-0.076,0.003-0.116,0.009
			c-0.074,0.015-0.629,0.161-0.629,0.161c-0.004,0-0.008,0.004-0.008,0.008c0,0.005,0.004,0.008,0.008,0.009
			c0,0,0.554,0.148,0.629,0.163c0.053,0.008,0.116,0.01,0.15,0.01c0.062,0,0.214,0.001,0.406,0.001
			c-0.124,0.027-0.609,0.155-0.609,0.155c-0.004,0.002-0.008,0.003-0.008,0.008c0,0.004,0.004,0.009,0.008,0.01
			c0,0,0.557,0.147,0.628,0.162c0.056,0.01,0.12,0.011,0.15,0.011c0.095,0.001,0.303,0.001,0.525,0.002
			c-0.188,0.047-0.452,0.117-0.452,0.117c-0.002,0-0.005,0.004-0.005,0.009c0,0.003,0.003,0.007,0.005,0.007
			c0,0,0.436,0.113,0.51,0.127c0.122,0.021,0.372,0.054,0.458,0.054c0.19,0.001,0.251,0.001,0.267,0.001l0,0h0.006
			c0.002,0,0.002,0,0.002,0l0,0c0.02,0,0.082,0,0.277,0c0.072,0,0.365-0.038,0.489-0.059c0.073-0.015,0.461-0.119,0.461-0.119
			c0.006,0,0.009-0.004,0.009-0.007c0-0.005-0.003-0.01-0.009-0.01c0,0-0.261-0.07-0.448-0.118c0.223,0,0.43,0.001,0.525,0.001
			c0.032,0,0.094-0.001,0.148-0.012c0.075-0.013,0.631-0.158,0.631-0.158c0.005-0.001,0.008-0.006,0.008-0.009
			c0-0.005-0.003-0.007-0.008-0.009c0,0-0.484-0.13-0.609-0.159c0.192,0,0.344,0.001,0.406,0.001c0.032,0,0.097-0.001,0.15-0.012
			c0.073-0.013,0.63-0.159,0.63-0.159c0.007,0,0.008-0.004,0.008-0.009c0-0.004-0.005-0.008-0.008-0.01c0,0-0.554-0.148-0.629-0.161
			c-0.041-0.006-0.084-0.01-0.117-0.01c0.154,0,0.267,0,0.315,0c0.032,0,0.096-0.001,0.148-0.011
			c0.019-0.004,0.067-0.015,0.131-0.03l0.502-0.13c0.002-0.001,0.005-0.005,0.005-0.008c0-0.005,0-0.009-0.005-0.009
			c0,0-0.557-0.147-0.63-0.162c-0.004-0.002-0.007-0.002-0.01-0.002c0.03,0,0.061,0.002,0.1,0.002c0.031,0,0.097-0.002,0.151-0.014
			c0.071-0.013,0.631-0.158,0.631-0.158c0.004-0.002,0.006-0.005,0.006-0.011c-0.002-0.003-0.004-0.006-0.006-0.008
			c0,0-0.56-0.147-0.631-0.162c-0.03-0.005-0.066-0.007-0.094-0.009c0.042,0,0.095,0,0.159,0.001c0.032,0,0.096-0.003,0.15-0.012
			c0.073-0.014,0.63-0.16,0.63-0.16c0.003,0,0.006-0.003,0.006-0.008c0-0.003-0.003-0.007-0.006-0.01c0,0-0.557-0.14-0.63-0.161
			c-0.055-0.015-0.181-0.015-0.155-0.015l-0.67-0.002c-0.03,0-0.095,0.002-0.149,0.013c-0.073,0.013-0.63,0.16-0.63,0.16
			c-0.003,0-0.007,0.003-0.007,0.008c0,0.006,0.004,0.009,0.007,0.01c0,0,0.557,0.148,0.63,0.161c0.03,0.005,0.062,0.008,0.09,0.008
			c-0.039,0.001-0.088,0.001-0.155,0.001c-0.031,0-0.097,0.001-0.149,0.011c-0.073,0.014-0.63,0.16-0.63,0.16
			c-0.003,0.001-0.008,0.004-0.008,0.009c0,0.003,0.004,0.008,0.008,0.009c0,0,0.398,0.148,0.473,0.162
			c0.009,0.002-0.193,0.003-0.405,0.003c-0.464,0.017-0.598,0.172-1.09,0.172c-0.49-0.001-0.626-0.158-1.091-0.178
			c-0.212,0-0.414-0.002-0.405-0.004c0.075-0.013,0.474-0.159,0.474-0.159c0.004-0.002,0.007-0.005,0.007-0.008
			c0-0.005-0.003-0.008-0.007-0.011c0,0-0.557-0.148-0.632-0.161c-0.049-0.011-0.114-0.013-0.146-0.013c-0.068,0-0.116,0-0.156,0
			c0.027-0.001,0.059-0.004,0.091-0.008c0.075-0.015,0.627-0.159,0.627-0.159c0.004-0.002,0.009-0.006,0.009-0.011
			s-0.005-0.007-0.009-0.007c0,0-0.712-0.15-0.784-0.163c-0.056-0.009-0.118-0.012-0.152-0.013c-0.02,0,0.01-0.003,0.042-0.009
			c0.073-0.014,0.629-0.159,0.629-0.159c0.004-0.002,0.007-0.006,0.007-0.011c0-0.003-0.003-0.006-0.007-0.006
			c0,0-0.554-0.15-0.628-0.163c-0.033-0.006-0.069-0.009-0.1-0.009c0.103-0.022,0.62-0.158,0.62-0.158
			c0.004-0.002,0.007-0.004,0.007-0.008c0-0.004-0.003-0.009-0.007-0.009c0,0-0.554-0.148-0.629-0.163
			c-0.015-0.003-0.029-0.006-0.044-0.007c0.884,0.003,2.26,0.005,2.26,0.005s2.719,0.004,2.964,0.004c0.033,0,0.097,0,0.15-0.009
			c0.074-0.013,0.63-0.159,0.63-0.159c0.006-0.001,0.008-0.005,0.008-0.01c0-0.003-0.002-0.007-0.008-0.01
			C1021.072,145.592,1020.517,145.446,1020.444,145.433z M1017.328,145.054c0,0-1.38-0.002-2.265-0.004
			c0.019-0.001,0.034-0.004,0.049-0.007c0.075-0.013,0.633-0.158,0.633-0.158c0.003-0.002,0.003-0.004,0.005-0.008
			c0-0.004-0.002-0.009-0.005-0.009c0,0-0.519-0.139-0.622-0.16c0.029-0.002,0.066-0.004,0.099-0.008
			c0.073-0.015,0.631-0.161,0.631-0.161c0.003,0,0.008-0.004,0.008-0.009c0-0.006-0.005-0.007-0.008-0.01
			c0,0-0.399-0.147-0.474-0.161c-0.032-0.006-0.059-0.009-0.04-0.009c0.033,0,0.099-0.001,0.152-0.012
			c0.073-0.013,0.627-0.159,0.627-0.159c0.005-0.001,0.01-0.005,0.01-0.008c0-0.004-0.005-0.009-0.01-0.009
			c0,0-0.552-0.149-0.626-0.165c-0.03-0.004-0.063-0.006-0.092-0.007c0.041,0,0.092,0,0.156,0c0.033,0,0.096,0,0.15-0.009
			c0.075-0.015,0.628-0.16,0.628-0.16c0.005-0.001,0.009-0.006,0.009-0.01c0-0.005-0.004-0.008-0.009-0.008
			c-0.406-0.151-0.389-0.148-0.474-0.163c-0.019-0.003,0.18-0.007,0.408-0.006c0.466-0.017,0.602-0.175,1.091-0.177l0,0
			c0.49,0.003,0.624,0.162,1.088,0.181c0.226,0,0.429,0.005,0.407,0.008c-0.076,0.013-0.476,0.16-0.476,0.16
			c-0.003,0.001-0.007,0.005-0.007,0.01c0,0.004,0.004,0.006,0.007,0.008c0,0,0.557,0.148,0.63,0.163
			c0.055,0.009,0.119,0.01,0.152,0.01c0.065,0,0.114,0,0.154,0c-0.028,0-0.06,0.004-0.089,0.01c-0.075,0.014-0.631,0.16-0.631,0.16
			c-0.004,0-0.007,0.004-0.007,0.008c0,0.005,0.003,0.008,0.007,0.011c0,0,0.555,0.147,0.63,0.16
			c0.053,0.012,0.117,0.012,0.149,0.012c0.021,0-0.006,0.004-0.038,0.011c-0.076,0.013-0.474,0.159-0.474,0.159
			c-0.006,0.002-0.007,0.006-0.007,0.009c0,0.004,0.001,0.007,0.007,0.01c0,0,0.554,0.148,0.628,0.162
			c0.033,0.005,0.066,0.007,0.097,0.01c-0.099,0.021-0.617,0.157-0.617,0.157c-0.006,0.001-0.008,0.005-0.008,0.009
			c0,0.005,0.002,0.007,0.008,0.009c0,0,0.554,0.148,0.63,0.161c0.016,0.002,0.027,0.004,0.043,0.006
			C1018.763,145.057,1017.328,145.054,1017.328,145.054z"/>
		<g display="none">
			<g display="inline">
				<path fill="#A7AAAC" d="M1002.238,158.518v-0.26l0.259,0.001l-0.003,0.259H1002.238z M1002.238,158.8v-0.258h0.256v0.258
					H1002.238z M1002.237,159.084l0.001-0.258h0.256v0.258H1002.237z M1002.236,159.368l0.001-0.258l0.257,0.001l-0.001,0.258
					L1002.236,159.368z M1002.236,159.655v-0.259h0.257v0.259H1002.236z M1002.235,159.938l0.001-0.259h0.257l-0.001,0.259H1002.235
					z M1002.517,160.221l0.002-0.257l0.26,0.001v0.257L1002.517,160.221z M1002.807,159.371l0.001-0.26h0.256l-0.001,0.26H1002.807z
					 M1002.807,159.653v-0.257h0.256v0.258L1002.807,159.653z M1002.807,159.938v-0.259l0.256,0.001l-0.002,0.258H1002.807z
					 M1003.086,160.222l0.002-0.256h0.257v0.256H1003.086z M1003.375,158.518l0.002-0.259h0.258v0.26L1003.375,158.518z
					 M1003.375,158.804v-0.26h0.26v0.26H1003.375z M1003.375,159.086v-0.26l0.26,0.001l-0.001,0.259H1003.375z M1003.375,159.371
					v-0.259l0.259,0.001l-0.001,0.258H1003.375z M1003.375,159.655v-0.259h0.258v0.259H1003.375z M1003.372,159.94l0.003-0.26
					l0.258,0.002l-0.002,0.258H1003.372z"/>
				<path fill="#A7AAAC" d="M1004.065,158.804v-0.26l0.256,0.001v0.259H1004.065z M1004.062,160.224l0.001-0.257l0.258,0.001v0.256
					H1004.062z M1004.348,158.519l0.002-0.258l0.258,0.001l-0.002,0.259L1004.348,158.519z M1004.348,158.804v-0.259l0.258,0.002
					v0.258L1004.348,158.804z M1004.347,159.087l0.001-0.258l0.258,0.002v0.258L1004.347,159.087z M1004.347,159.373v-0.258h0.261
					l-0.002,0.258H1004.347z M1004.347,159.657v-0.26l0.259,0.001v0.259H1004.347z M1004.347,159.942v-0.26l0.259,0.002v0.258
					H1004.347z M1004.345,160.224l0.002-0.256h0.259l-0.002,0.257L1004.345,160.224z M1004.633,160.225v-0.257l0.257,0.001v0.257
					L1004.633,160.225z"/>
				<path fill="#A7AAAC" d="M1005.322,158.807v-0.259h0.259v0.26L1005.322,158.807z M1005.322,159.092v-0.258h0.259l-0.003,0.259
					L1005.322,159.092z M1005.321,159.375l0.001-0.259h0.256l-0.001,0.259H1005.321z M1005.321,159.661v-0.26l0.256,0.001v0.259
					H1005.321z M1005.319,159.943l0.002-0.257h0.256l-0.002,0.258L1005.319,159.943z M1005.604,158.522l0.002-0.26h0.259v0.26
					H1005.604z M1005.604,159.661v-0.259l0.259,0.001v0.258H1005.604z M1005.604,160.226v-0.256h0.257v0.257L1005.604,160.226z
					 M1005.892,158.522v-0.26l0.257,0.002v0.258H1005.892z M1005.889,159.375l0.002-0.258l0.258,0.001l-0.002,0.257H1005.889z
					 M1005.887,160.227v-0.257l0.259,0.001v0.257L1005.887,160.227z M1006.175,158.522l0.001-0.258h0.257v0.258H1006.175z
					 M1006.173,159.092v-0.258l0.26,0.001l-0.001,0.258L1006.173,159.092z M1006.173,160.228v-0.257l0.258,0.001l-0.001,0.256
					H1006.173z M1006.458,158.808v-0.259l0.261,0.001l-0.001,0.26L1006.458,158.808z M1006.458,159.093v-0.259h0.26v0.259H1006.458z
					 M1006.458,159.377v-0.258h0.26l-0.001,0.258H1006.458z M1006.458,159.661v-0.26l0.259,0.001v0.259H1006.458z M1006.456,159.946
					l0.002-0.26l0.259,0.001v0.259H1006.456z"/>
				<path fill="#A7AAAC" d="M1007.146,159.948v-0.259h0.258l-0.001,0.259H1007.146z M1007.145,160.23l0.002-0.256h0.257v0.256
					H1007.145z M1007.431,159.948l0.001-0.259h0.258l-0.001,0.259H1007.431z M1007.431,160.23v-0.256h0.258v0.257L1007.431,160.23z"
					/>
				<path fill="#A7AAAC" d="M1008.407,158.529v-0.26h0.257v0.26H1008.407z M1008.407,158.812v-0.26l0.257,0.002v0.258H1008.407z
					 M1008.404,159.096v-0.258l0.26,0.001v0.257H1008.404z M1008.404,159.95v-0.259h0.257v0.259H1008.404z M1008.688,158.527
					l0.002-0.258l0.258,0.001v0.259L1008.688,158.527z M1008.688,159.096v-0.257l0.258,0.001v0.256H1008.688z M1008.685,160.232
					l0.003-0.256h0.257v0.257L1008.685,160.232z M1008.975,158.529v-0.258h0.258v0.258H1008.975z M1008.975,159.096v-0.256h0.258
					v0.257L1008.975,159.096z M1008.97,160.234l0.003-0.257l0.257,0.001l-0.001,0.256H1008.97z M1009.26,158.529l0.001-0.258h0.257
					l-0.001,0.258H1009.26z M1009.256,159.097v-0.257h0.26v0.258L1009.256,159.097z M1009.255,160.234v-0.256h0.26l-0.004,0.256
					H1009.255z M1009.542,158.529l0.003-0.258h0.258v0.258H1009.542z M1009.541,159.383v-0.258h0.261l-0.001,0.259L1009.541,159.383
					z M1009.541,159.667v-0.259h0.26v0.259H1009.541z M1009.54,159.951l0.001-0.258h0.26l-0.003,0.259L1009.54,159.951z"/>
				<path fill="#A7AAAC" d="M1009.947,158.816l0.001-0.259h0.256v0.259H1009.947z M1009.947,159.1v-0.258h0.257v0.258H1009.947z
					 M1009.947,159.384v-0.258h0.257l-0.001,0.258H1009.947z M1009.947,159.669v-0.26l0.256,0.002v0.258H1009.947z
					 M1009.947,159.953v-0.258l0.256,0.001v0.257H1009.947z M1010.232,158.531v-0.258h0.26l-0.003,0.258H1010.232z M1010.23,159.669
					v-0.258h0.259v0.258H1010.23z M1010.228,160.236l0.002-0.257l0.258,0.001l-0.001,0.256H1010.228z M1010.517,158.531l0.001-0.258
					h0.258v0.259L1010.517,158.531z M1010.515,159.386v-0.259h0.259l-0.001,0.259H1010.515z M1010.512,160.236l0.003-0.256h0.254
					v0.256H1010.512z M1010.799,158.532v-0.259l0.262,0.001l-0.002,0.259L1010.799,158.532z M1010.799,159.1v-0.256h0.26v0.256
					H1010.799z M1010.798,160.236v-0.256h0.26l-0.003,0.257L1010.798,160.236z M1011.086,158.819v-0.26h0.259l-0.001,0.26H1011.086z
					 M1011.084,159.1v-0.258h0.26v0.26L1011.084,159.1z M1011.083,159.386l0.001-0.258h0.26v0.258H1011.083z M1011.083,159.669
					v-0.26l0.261,0.002v0.258H1011.083z M1011.082,159.955l0.001-0.259h0.257v0.259H1011.082z"/>
				<path fill="#A7AAAC" d="M1011.771,159.955v-0.258h0.259l-0.001,0.259L1011.771,159.955z M1011.771,160.238v-0.256h0.258v0.256
					H1011.771z M1012.058,159.956v-0.259l0.258,0.001v0.259L1012.058,159.956z M1012.056,160.238l0.002-0.256h0.258l-0.001,0.257
					L1012.056,160.238z"/>
				<path fill="#A7AAAC" d="M1013.033,158.822v-0.259h0.255l-0.001,0.259H1013.033z M1013.028,160.241l0.002-0.256h0.257v0.257
					L1013.028,160.241z M1013.316,158.538v-0.26l0.26,0.001l-0.003,0.259H1013.316z M1013.314,159.959v-0.26l0.258,0.002v0.259
					L1013.314,159.959z M1013.313,160.242l0.001-0.257l0.258,0.001v0.257L1013.313,160.242z M1013.601,158.538l0.001-0.259
					l0.258,0.001l-0.002,0.258H1013.601z M1013.599,159.675v-0.259h0.258v0.26L1013.599,159.675z M1013.599,160.243v-0.257h0.257
					v0.257H1013.599z M1013.886,158.538v-0.258l0.258,0.001l-0.001,0.257H1013.886z M1013.882,159.392v-0.258h0.261l-0.001,0.258
					H1013.882z M1013.88,160.243l0.001-0.257l0.261,0.001l-0.003,0.256H1013.88z M1014.168,158.823l0.003-0.259l0.257,0.001v0.26
					L1014.168,158.823z M1014.168,159.106v-0.258h0.259v0.259L1014.168,159.106z M1014.166,160.243l0.001-0.256h0.26l-0.003,0.257
					L1014.166,160.243z"/>
				<path fill="#A7AAAC" d="M1014.574,158.825v-0.259h0.256v0.259H1014.574z M1014.57,160.244l0.001-0.257l0.258,0.001v0.257
					L1014.57,160.244z M1014.857,158.54l0.002-0.259l0.256,0.001v0.258H1014.857z M1014.854,159.962l0.002-0.259h0.256v0.259
					H1014.854z M1014.854,160.245v-0.257h0.258v0.257H1014.854z M1015.144,158.54v-0.258h0.257l-0.001,0.26L1015.144,158.54z
					 M1015.143,159.677v-0.259l0.257,0.002v0.258L1015.143,159.677z M1015.139,160.245v-0.257l0.26,0.001l-0.002,0.256H1015.139z
					 M1015.425,158.542l0.003-0.26h0.257v0.26H1015.425z M1015.424,159.395v-0.258h0.261l-0.002,0.259L1015.424,159.395z
					 M1015.423,160.247l0.001-0.258l0.257,0.001l-0.001,0.257H1015.423z M1015.71,158.826v-0.259h0.262v0.26L1015.71,158.826z
					 M1015.709,159.11v-0.259l0.262,0.001v0.259L1015.709,159.11z M1015.708,160.247l0.001-0.257h0.26l-0.003,0.257H1015.708z"/>
				<path fill="#A7AAAC" d="M1016.401,158.829v-0.259h0.259l-0.002,0.26L1016.401,158.829z M1016.398,160.247l0.002-0.256h0.256
					l-0.001,0.258L1016.398,160.247z M1016.686,158.544v-0.258h0.257v0.258H1016.686z M1016.686,158.83v-0.26h0.257v0.26H1016.686z
					 M1016.684,159.111v-0.256h0.258v0.257L1016.684,159.111z M1016.683,159.396l0.001-0.258h0.259v0.259L1016.683,159.396z
					 M1016.683,159.68v-0.259l0.26,0.001v0.258H1016.683z M1016.683,159.966v-0.259l0.26,0.001l-0.001,0.258H1016.683z
					 M1016.683,160.249v-0.258l0.259,0.002l-0.001,0.256H1016.683z M1016.966,160.249l0.002-0.256h0.256v0.256H1016.966z"/>
				<path fill="#A7AAAC" d="M1017.94,159.968v-0.258h0.258l-0.002,0.259L1017.94,159.968z M1017.94,160.251v-0.256h0.256v0.256
					H1017.94z M1018.226,159.969v-0.259h0.256v0.259H1018.226z M1018.223,160.251l0.003-0.256h0.256v0.256H1018.223z"/>
				<path fill="#A7AAAC" d="M1019.2,158.833v-0.26h0.256v0.26H1019.2z M1019.198,160.253v-0.256h0.256v0.256H1019.198z
					 M1019.483,158.548l0.001-0.258l0.26,0.001l-0.003,0.258L1019.483,158.548z M1019.482,159.971v-0.259h0.258v0.259H1019.482z
					 M1019.479,160.253l0.003-0.256h0.258l-0.001,0.256H1019.479z M1019.77,158.549l0.001-0.257h0.257l-0.001,0.258L1019.77,158.549
					z M1019.767,159.687v-0.258h0.258v0.258H1019.767z M1019.765,160.254v-0.257l0.256,0.001v0.257L1019.765,160.254z
					 M1020.051,158.55l0.002-0.258h0.259v0.259L1020.051,158.55z M1020.051,159.404v-0.259l0.26,0.001l-0.002,0.259
					L1020.051,159.404z M1020.049,160.255l0.001-0.257l0.259,0.001l-0.002,0.256H1020.049z M1020.338,158.836v-0.258h0.259
					l-0.003,0.259L1020.338,158.836z M1020.336,159.119v-0.26l0.258,0.001v0.259H1020.336z M1020.333,160.255V160h0.259
					l-0.002,0.257L1020.333,160.255z"/>
				<path fill="#A7AAAC" d="M1020.742,158.552v-0.26l0.258,0.001v0.261L1020.742,158.552z M1020.742,158.837v-0.259H1021v0.26
					L1020.742,158.837z M1020.742,159.119v-0.256H1021v0.258L1020.742,159.119z M1020.739,159.974v-0.26l0.258,0.001v0.259H1020.739
					z M1021.024,158.551l0.001-0.258l0.261,0.001v0.258L1021.024,158.551z M1021.022,159.122v-0.258h0.261v0.258H1021.022z
					 M1021.022,160.256V160l0.26,0.001l-0.003,0.257L1021.022,160.256z M1021.312,158.552l0.001-0.258h0.256l-0.001,0.258H1021.312z
					 M1021.31,159.122v-0.258h0.258v0.258H1021.31z M1021.308,160.258l0.002-0.257h0.256l-0.001,0.257H1021.308z M1021.593,158.552
					l0.002-0.258l0.259,0.001v0.259L1021.593,158.552z M1021.593,159.122v-0.258l0.261,0.002v0.257L1021.593,159.122z
					 M1021.591,160.258V160l0.258,0.001l-0.001,0.257L1021.591,160.258z M1021.877,158.554l0.004-0.259h0.259l-0.002,0.259H1021.877
					z M1021.877,159.408v-0.259h0.261v0.259H1021.877z M1021.877,159.69v-0.258h0.261v0.258H1021.877z M1021.877,159.976v-0.26
					l0.261,0.002l-0.001,0.258H1021.877z"/>
			</g>
			<g display="inline">
				<path fill="#A7AAAC" d="M1026.756,159.417l0.002-0.258h0.258l-0.001,0.259L1026.756,159.417z M1027.042,159.417l0.001-0.259
					h0.257v0.259H1027.042z M1027.328,158.85v-0.261l0.258,0.002l-0.001,0.26L1027.328,158.85z M1027.327,159.133v-0.258
					l0.258,0.001v0.258L1027.327,159.133z M1027.327,159.417v-0.259l0.259,0.001v0.258H1027.327z M1027.327,159.701v-0.259h0.259
					v0.259H1027.327z M1027.324,159.986l0.003-0.258l0.258,0.001v0.258L1027.324,159.986z M1027.608,159.417l0.002-0.258
					l0.259,0.001l-0.003,0.259L1027.608,159.417z M1027.895,159.42l0.001-0.259l0.261,0.001l-0.002,0.258H1027.895z"/>
				<path fill="#A7AAAC" d="M1028.302,158.567v-0.26l0.256,0.001v0.26L1028.302,158.567z M1028.302,158.852v-0.259h0.256v0.26
					L1028.302,158.852z M1028.302,159.134v-0.256h0.256v0.258L1028.302,159.134z M1028.3,159.42l0.002-0.258h0.256v0.258H1028.3z
					 M1028.3,159.706v-0.258h0.258v0.258H1028.3z M1028.299,159.988l0.001-0.259l0.256,0.001v0.259L1028.299,159.988z
					 M1028.581,160.271v-0.256h0.26l-0.001,0.257L1028.581,160.271z M1028.869,159.42v-0.258h0.257v0.259L1028.869,159.42z
					 M1028.869,159.703v-0.256h0.257v0.256H1028.869z M1028.866,159.989v-0.258h0.26l-0.003,0.259L1028.866,159.989z
					 M1029.15,160.272v-0.257l0.258,0.001l-0.001,0.257L1029.15,160.272z M1029.438,158.568l0.002-0.258h0.259v0.259
					L1029.438,158.568z M1029.437,158.854l0.001-0.259h0.261v0.26L1029.437,158.854z M1029.437,159.137v-0.259h0.262v0.26
					L1029.437,159.137z M1029.437,159.422v-0.258h0.262l-0.002,0.258H1029.437z M1029.437,159.706v-0.258h0.26v0.258H1029.437z
					 M1029.437,159.99v-0.259l0.26,0.001l-0.003,0.259L1029.437,159.99z"/>
				<path fill="#A7AAAC" d="M1029.841,159.422l0.001-0.258l0.256,0.001v0.258L1029.841,159.422z M1029.841,159.708v-0.259
					l0.257,0.001v0.258H1029.841z M1029.841,159.991v-0.259l0.257,0.001l-0.001,0.258H1029.841z M1030.125,159.138v-0.259h0.259
					v0.259H1030.125z M1030.124,159.708v-0.259l0.26,0.001v0.258H1030.124z M1030.121,160.274l0.003-0.256h0.26l-0.002,0.256
					H1030.121z M1030.411,159.138v-0.259l0.256,0.001v0.259L1030.411,159.138z M1030.41,159.708v-0.26l0.257,0.001v0.259H1030.41z
					 M1030.41,160.274v-0.256h0.256l-0.002,0.256H1030.41z M1030.693,159.14v-0.259l0.26,0.001v0.259L1030.693,159.14z
					 M1030.693,159.708v-0.259h0.258v0.259H1030.693z M1030.691,160.274l0.001-0.256h0.257v0.258L1030.691,160.274z
					 M1030.979,159.425v-0.259h0.259v0.259H1030.979z M1030.979,159.708v-0.259l0.259,0.001v0.259L1030.979,159.708z"/>
				<path fill="#A7AAAC" d="M1031.385,158.573l0.001-0.26h0.259l-0.003,0.26H1031.385z M1031.385,158.857v-0.258h0.257v0.258
					H1031.385z M1031.385,159.141v-0.258l0.256,0.002v0.257L1031.385,159.141z M1031.385,159.425v-0.258l0.256,0.001v0.258
					L1031.385,159.425z M1031.385,159.71v-0.259h0.256v0.26L1031.385,159.71z M1031.383,159.995v-0.26h0.258v0.26H1031.383z
					 M1031.382,160.276l0.001-0.256h0.258v0.257L1031.382,160.276z M1031.668,159.426l0.001-0.258h0.258l-0.001,0.258H1031.668z
					 M1031.665,160.278l0.003-0.257h0.257v0.257H1031.665z M1031.953,159.143v-0.258l0.256,0.001v0.257H1031.953z M1031.95,160.279
					v-0.257l0.259,0.001l-0.002,0.256H1031.95z M1032.236,159.143v-0.26l0.26,0.002v0.258H1032.236z M1032.232,160.279l0.002-0.256
					h0.26l-0.002,0.256H1032.232z M1032.521,159.428v-0.259l0.259,0.001v0.258H1032.521z M1032.521,159.712v-0.26h0.259v0.26
					H1032.521z M1032.521,159.997v-0.26l0.259,0.002l-0.002,0.258H1032.521z"/>
			</g>
			<g display="inline">
				<path fill="#A7AAAC" d="M1007.077,161.303l0.002-0.259l0.256,0.001v0.258H1007.077z M1007.075,162.724v-0.257h0.256v0.257
					H1007.075z M1007.36,161.019v-0.259h0.259v0.259H1007.36z M1007.358,161.303l0.002-0.258l0.259,0.002v0.258L1007.358,161.303z
					 M1007.358,161.586v-0.256l0.261,0.001v0.256L1007.358,161.586z M1007.358,161.872v-0.258h0.261v0.259L1007.358,161.872z
					 M1007.358,162.155v-0.258h0.261v0.258H1007.358z M1007.358,162.441v-0.26l0.261,0.001v0.259H1007.358z M1007.357,162.724
					l0.001-0.257l0.261,0.001l-0.003,0.257L1007.357,162.724z M1007.642,162.725l0.003-0.257l0.256,0.001v0.257L1007.642,162.725z"
					/>
				<path fill="#A7AAAC" d="M1008.334,161.305l0.002-0.258h0.256l-0.002,0.259L1008.334,161.305z M1008.334,161.59v-0.258h0.256
					v0.259L1008.334,161.59z M1008.334,161.874v-0.258h0.256v0.259L1008.334,161.874z M1008.334,162.16V161.9l0.256,0.001v0.258
					H1008.334z M1008.334,162.443v-0.258h0.256v0.258H1008.334z M1008.617,161.021v-0.259h0.261v0.259H1008.617z M1008.615,162.16
					l0.001-0.258h0.259v0.259L1008.615,162.16z M1008.614,162.727v-0.257l0.259,0.001v0.256H1008.614z M1008.903,161.021v-0.259
					l0.258,0.001v0.258H1008.903z M1008.9,161.875v-0.259l0.258,0.001v0.258H1008.9z M1008.9,162.727v-0.256h0.257v0.256H1008.9z
					 M1009.188,161.022v-0.259h0.256v0.259H1009.188z M1009.186,161.59v-0.257l0.258,0.001v0.256H1009.186z M1009.184,162.727
					v-0.256h0.26l-0.001,0.257L1009.184,162.727z M1009.471,161.307l0.002-0.258l0.257,0.001v0.258L1009.471,161.307z
					 M1009.471,161.59v-0.258h0.259v0.258H1009.471z M1009.471,161.876v-0.258h0.259v0.259L1009.471,161.876z M1009.47,162.16
					l0.001-0.258h0.259l-0.003,0.258H1009.47z M1009.47,162.445v-0.26h0.257v0.26H1009.47z"/>
				<path fill="#A7AAAC" d="M1009.877,161.025v-0.261l0.256,0.001v0.26H1009.877z M1009.877,161.309v-0.259h0.256v0.259H1009.877z
					 M1009.876,161.59l0.001-0.256l0.256,0.001l-0.001,0.256L1009.876,161.59z M1009.876,161.877v-0.259l0.256,0.001v0.258H1009.876
					z M1009.873,162.162l0.003-0.258h0.256v0.259L1009.873,162.162z M1009.873,162.445v-0.26l0.259,0.002v0.26L1009.873,162.445z
					 M1010.157,162.729v-0.257h0.26v0.257H1010.157z M1010.442,161.878v-0.258h0.259v0.258H1010.442z M1010.442,162.162v-0.258
					l0.259,0.002l-0.001,0.256H1010.442z M1010.442,162.447v-0.259h0.258v0.259H1010.442z M1010.726,162.731l0.001-0.257l0.26,0.001
					l-0.003,0.256H1010.726z M1011.014,161.025v-0.259l0.259,0.001v0.258H1011.014z M1011.013,161.31l0.001-0.258l0.259,0.001
					l-0.001,0.258L1011.013,161.31z M1011.013,161.593v-0.258h0.259v0.26L1011.013,161.593z M1011.013,161.879v-0.259l0.259,0.001
					v0.258H1011.013z M1011.012,162.162l0.001-0.258h0.259l-0.002,0.259L1011.012,162.162z M1011.012,162.447v-0.259l0.258,0.001
					v0.259L1011.012,162.447z"/>
			</g>
			<g display="inline">
				<path fill="#A7AAAC" d="M1017.74,161.324l0.001-0.258h0.258v0.258H1017.74z M1017.737,162.745v-0.257l0.259,0.001l-0.001,0.257
					L1017.737,162.745z M1018.023,161.039v-0.259h0.259v0.259H1018.023z M1018.022,161.324l0.001-0.258h0.259v0.258H1018.022z
					 M1018.022,161.607v-0.256h0.26l-0.001,0.256H1018.022z M1018.022,161.892v-0.257h0.26v0.258L1018.022,161.892z
					 M1018.022,162.176v-0.258h0.26l-0.001,0.258H1018.022z M1018.022,162.462v-0.259h0.259v0.259H1018.022z M1018.021,162.746
					v-0.257h0.26v0.257H1018.021z M1018.308,162.746l0.001-0.257h0.255v0.257H1018.308z"/>
				<path fill="#A7AAAC" d="M1019,161.326v-0.258h0.255l-0.002,0.259L1019,161.326z M1018.997,161.612l0.003-0.259l0.253,0.001
					v0.259L1018.997,161.612z M1018.997,161.895v-0.259h0.256v0.259H1018.997z M1018.996,162.181l0.001-0.259h0.256l-0.001,0.259
					H1018.996z M1018.996,162.463v-0.257h0.256v0.258L1018.996,162.463z M1019.281,161.042v-0.259l0.26,0.001v0.259
					L1019.281,161.042z M1019.279,162.181v-0.259l0.259,0.001v0.258H1019.279z M1019.279,162.747v-0.257l0.257,0.001v0.257
					L1019.279,162.747z M1019.568,161.042v-0.259h0.256v0.26L1019.568,161.042z M1019.565,161.895v-0.257h0.256v0.259
					L1019.565,161.895z M1019.565,162.748v-0.257l0.255,0.001v0.256H1019.565z M1019.85,161.043v-0.26h0.258v0.26H1019.85z
					 M1019.85,161.61v-0.256h0.258l-0.001,0.257L1019.85,161.61z M1019.847,162.748v-0.256h0.26l-0.001,0.257L1019.847,162.748z
					 M1020.135,161.328l0.002-0.258h0.257l-0.001,0.258H1020.135z M1020.135,161.612v-0.259h0.258v0.259H1020.135z
					 M1020.135,161.897v-0.259l0.258,0.001v0.258H1020.135z M1020.133,162.18l0.002-0.258h0.258v0.259L1020.133,162.18z
					 M1020.133,162.466v-0.26l0.26,0.001v0.259H1020.133z"/>
				<path fill="#A7AAAC" d="M1020.539,161.047v-0.263l0.258,0.001v0.261H1020.539z M1020.539,161.328v-0.258l0.258,0.001v0.257
					H1020.539z M1020.538,161.613l0.001-0.257l0.258,0.002l-0.002,0.256L1020.538,161.613z M1020.538,161.897v-0.258h0.257v0.259
					L1020.538,161.897z M1020.537,162.183l0.001-0.258h0.257v0.259L1020.537,162.183z M1020.537,162.466v-0.258h0.258v0.258
					H1020.537z M1020.82,162.75v-0.256h0.26v0.256H1020.82z M1021.108,161.899v-0.26h0.257v0.26H1021.108z M1021.106,162.181
					l0.002-0.256l0.257,0.001l-0.001,0.255H1021.106z M1021.106,162.466v-0.258h0.258v0.26L1021.106,162.466z M1021.388,162.752
					v-0.258h0.261l-0.001,0.258H1021.388z M1021.679,161.047v-0.26h0.257v0.26H1021.679z M1021.678,161.331l0.001-0.259h0.257v0.26
					L1021.678,161.331z M1021.676,161.614l0.002-0.258h0.258l-0.001,0.259L1021.676,161.614z M1021.676,161.899v-0.258h0.259v0.259
					L1021.676,161.899z M1021.676,162.183v-0.258h0.259v0.258H1021.676z M1021.676,162.47v-0.259h0.259v0.259H1021.676z"/>
				<path fill="#A7AAAC" d="M1022.084,161.047v-0.258h0.256v0.26L1022.084,161.047z M1022.08,161.333l0.004-0.259h0.256v0.259
					H1022.08z M1022.08,161.616v-0.257h0.26l-0.003,0.257H1022.08z M1022.08,161.901v-0.259l0.257,0.001v0.258H1022.08z
					 M1022.079,162.184l0.001-0.257l0.257,0.001v0.256H1022.079z M1022.079,162.47v-0.259h0.261v0.26L1022.079,162.47z
					 M1022.079,162.753v-0.257h0.258v0.257H1022.079z M1022.365,161.901v-0.258h0.257v0.258H1022.365z M1022.648,161.616
					l0.001-0.256l0.256,0.001v0.256L1022.648,161.616z M1022.931,161.617l0.004-0.259h0.257v0.26L1022.931,161.617z
					 M1023.217,161.903v-0.259l0.259,0.001v0.258H1023.217z M1023.217,162.185v-0.257l0.259,0.001v0.256H1023.217z
					 M1023.217,162.472v-0.258h0.259v0.258H1023.217z M1023.215,162.756l0.002-0.258l0.259,0.002v0.256H1023.215z"/>
			</g>
			<g display="inline">
				<path fill="#A7AAAC" d="M1029.776,161.347l0.002-0.259l0.256,0.001v0.258H1029.776z M1029.774,162.767v-0.256h0.258
					l-0.002,0.256H1029.774z M1030.061,161.062v-0.259h0.257v0.259H1030.061z M1030.06,161.347l0.001-0.258h0.257l-0.002,0.259
					L1030.06,161.347z M1030.06,161.631v-0.257l0.256,0.001v0.256H1030.06z M1030.06,161.916v-0.258h0.261v0.258H1030.06z
					 M1030.06,162.199v-0.258l0.261,0.001l-0.003,0.258L1030.06,162.199z M1030.06,162.485v-0.26l0.258,0.001v0.259H1030.06z
					 M1030.058,162.767l0.002-0.256h0.256v0.258L1030.058,162.767z M1030.344,162.769l0.001-0.258l0.257,0.002v0.256H1030.344z"/>
				<path fill="#A7AAAC" d="M1031.032,161.349l0.003-0.258h0.256v0.259L1031.032,161.349z M1031.032,161.636v-0.259h0.259v0.259
					H1031.032z M1031.032,161.918v-0.258h0.259v0.258H1031.032z M1031.031,162.204l0.001-0.26l0.259,0.001l-0.001,0.259H1031.031z
					 M1031.031,162.486v-0.257h0.259v0.258L1031.031,162.486z M1031.317,161.066v-0.259h0.261v0.259H1031.317z M1031.315,162.204
					v-0.259l0.258,0.001v0.258H1031.315z M1031.314,162.771l0.001-0.258h0.258v0.258H1031.314z M1031.604,161.066v-0.259h0.256
					v0.259H1031.604z M1031.602,161.918v-0.258l0.258,0.001v0.259L1031.602,161.918z M1031.6,162.771v-0.258l0.258,0.002
					l-0.001,0.256H1031.6z M1031.887,161.066v-0.259l0.258,0.001v0.259L1031.887,161.066z M1031.883,161.635l0.003-0.257
					l0.259,0.001v0.256H1031.883z M1031.882,162.771v-0.256h0.26v0.257L1031.882,162.771z M1032.171,161.352l0.001-0.258h0.259
					v0.259L1032.171,161.352z M1032.171,161.636v-0.259h0.26l-0.001,0.259H1032.171z M1032.171,161.92v-0.258h0.259v0.259
					L1032.171,161.92z M1032.171,162.203v-0.259l0.259,0.002l-0.001,0.258L1032.171,162.203z M1032.171,162.489v-0.259l0.258,0.001
					v0.259L1032.171,162.489z"/>
			</g>
		</g>
		<g>
			<path fill="#FFFFFF" stroke="#E5E5E4" stroke-width="6.8756" stroke-miterlimit="10" d="M1331.975,145.011
				c0-12.274-9.947-22.223-22.222-22.223c-1.622,0-3.198,0.178-4.722,0.507c1.131-3.352,1.75-6.937,1.75-10.67
				c0-18.467-14.972-33.438-33.439-33.438c-13.812,0-25.668,8.376-30.767,20.327c-1.084-0.117-2.18-0.181-3.294-0.181
				c-14.652,0-26.877,10.392-29.708,24.208c-1.321-0.248-2.68-0.382-4.072-0.382c-12.175,0-22.045,9.869-22.045,22.042
				c0,12.149,9.831,22.002,21.971,22.042v0.007h104.47v-0.018C1322.103,167.153,1331.975,157.238,1331.975,145.011z"/>
			<g>
				<g>
					<path fill="none" stroke="#F37321" stroke-width="5.7259" stroke-miterlimit="10" d="M1275.417,141.194
						c-3.294,4.58-8.669,7.563-14.741,7.563c-6.236,0-11.737-3.145-15.005-7.936"/>
					<g>
						<polygon fill="#F37321" points="1253.866,140.189 1242.526,130.609 1239.897,145.219 						"/>
					</g>
				</g>
			</g>
			<g>
				<g>
					<path fill="none" stroke="#F37321" stroke-width="5.7259" stroke-miterlimit="10" d="M1243.951,123.544
						c2.757-6.512,9.207-11.083,16.725-11.083c7.288,0,13.573,4.297,16.46,10.496"/>
					<g>
						<polygon fill="#F37321" points="1285.462,119.68 1267.893,123.973 1278.823,130.609 						"/>
					</g>
				</g>
			</g>
		</g>
	</g>
	<g id="dotted_lines">
		
			<line fill="none" stroke="#D1D3D4" stroke-width="4.1253" stroke-miterlimit="10" stroke-dasharray="6.8756" x1="698.707" y1="336.691" x2="698.707" y2="427.657"/>
		
			<line fill="none" stroke="#D1D3D4" stroke-width="4.1253" stroke-miterlimit="10" stroke-dasharray="6.8756" x1="850.124" y1="336.691" x2="850.124" y2="427.657"/>
		
			<line fill="none" stroke="#D1D3D4" stroke-width="4.1253" stroke-miterlimit="10" stroke-dasharray="6.8756" x1="1086.753" y1="386.809" x2="1086.753" y2="427.657"/>
		
			<line fill="none" stroke="#D1D3D4" stroke-width="4.1253" stroke-miterlimit="10" stroke-dasharray="6.8756" x1="1320.368" y1="386.103" x2="1320.368" y2="452.644"/>
		
			<line fill="none" stroke="#D1D3D4" stroke-width="4.1253" stroke-miterlimit="10" stroke-dasharray="6.8756" x1="1255.249" y1="336.691" x2="698.299" y2="336.691"/>
		
			<line fill="none" stroke="#D1D3D4" stroke-width="4.1253" stroke-miterlimit="10" stroke-dasharray="6.8756" x1="1314.205" y1="386.808" x2="1086.753" y2="386.808"/>
		
			<line fill="none" stroke="#D1D3D4" stroke-width="4.1253" stroke-miterlimit="10" stroke-dasharray="6.8756" x1="1261.985" y1="169.206" x2="1261.985" y2="377.633"/>
	</g>
	<g>
		<path fill-rule="evenodd" clip-rule="evenodd" fill="#A7AAAC" d="M151.366,95.807h-26.916c0.006,2.585,0.022,10.773,0.022,10.842
			c0,1.497-1.212,2.709-2.709,2.709s-2.708-1.212-2.708-2.709c0-0.016,0.004-8.248,0.005-10.842H92.164
			c-1.017,0-1.84,0.824-1.84,1.839v78.392c0,1.016,0.823,1.841,1.84,1.841h59.203c1.016,0,1.839-0.825,1.839-1.841V97.646
			C153.205,96.631,152.382,95.807,151.366,95.807z"/>
		<g>
			<polygon fill="#FFFFFF" points="114.326,138.569 115.457,138.569 115.457,138.371 114.326,138.371 114.326,137.542 
				115.534,137.542 115.534,137.344 114.109,137.344 114.109,139.674 115.586,139.674 115.586,139.477 114.326,139.477 			"/>
			<polygon fill="#FFFFFF" points="120.644,139.385 120.637,139.385 119.219,137.344 118.94,137.344 118.94,139.674 
				119.158,139.674 119.158,137.634 119.163,137.634 120.582,139.674 120.862,139.674 120.862,137.344 120.644,137.344 			"/>
			<polygon fill="#FFFFFF" points="124.596,138.569 125.729,138.569 125.729,138.371 124.596,138.371 124.596,137.542 
				125.804,137.542 125.804,137.344 124.379,137.344 124.379,139.674 125.857,139.674 125.857,139.477 124.596,139.477 			"/>
			<path fill="#FFFFFF" d="M130.652,137.956c0-0.612-0.645-0.612-0.829-0.612h-0.612v2.33h0.216v-1.105h0.406l0.655,1.105h0.246
				l-0.679-1.118C130.313,138.522,130.652,138.4,130.652,137.956z M129.427,138.371v-0.829h0.46c0.458,0,0.547,0.253,0.547,0.415
				s-0.09,0.415-0.547,0.415H129.427z"/>
			<path fill="#FFFFFF" d="M135.188,138.615h0.559v0.783c-0.179,0.106-0.402,0.139-0.653,0.139c-0.608,0-0.987-0.447-0.987-1.026
				c0-0.58,0.378-1.027,0.987-1.027c0.254,0,0.541,0.117,0.681,0.289l0.16-0.165c-0.214-0.217-0.494-0.322-0.841-0.322
				c-0.71,0-1.203,0.514-1.203,1.225c0,0.711,0.493,1.224,1.203,1.224c0.304,0,0.6-0.056,0.87-0.211v-1.105h-0.775V138.615z"/>
			<polygon fill="#FFFFFF" points="140.107,138.449 139.403,137.344 139.143,137.344 139.999,138.67 139.999,139.674 
				140.216,139.674 140.216,138.67 141.071,137.344 140.829,137.344 			"/>
			<path fill="#FFFFFF" d="M115.465,131.455c-1.139,0-1.965,0.858-1.965,1.996c0,1.132,0.754,1.998,1.957,1.998
				c0.73,0,1.284-0.257,1.684-0.778l-0.546-0.418c-0.28,0.345-0.602,0.57-1.042,0.57c-0.666,0-1.283-0.441-1.283-1.107h3.048v-0.256
				C117.318,132.481,116.804,131.455,115.465,131.455z M114.27,133.14c0-0.506,0.465-1.106,1.179-1.106
				c0.729,0,1.082,0.473,1.099,1.106H114.27z"/>
			<path fill="#FFFFFF" d="M119.897,131.455c-0.585,0-1.066,0.28-1.251,0.681h-0.016v-0.585h-0.721v3.801h0.721v-1.958
				c0-0.881,0.458-1.268,1.059-1.268c0.457,0,0.867,0.267,0.867,0.979v2.246h0.721v-2.445
				C121.277,131.896,120.635,131.455,119.897,131.455z"/>
			<path fill="#FFFFFF" d="M133.893,134.663v-1.942c0-0.657-0.465-1.266-1.586-1.266c-0.531,0-1.108,0.183-1.51,0.561l0.434,0.449
				c0.264-0.202,0.53-0.432,1.082-0.432c0.618,0,0.907,0.407,0.907,0.802v0.159h-0.53c-1.154,0-2.094,0.337-2.094,1.315
				c0,0.738,0.61,1.14,1.317,1.14c0.577,0,1.01-0.184,1.331-0.674h0.016c0,0.193,0.007,0.386,0.024,0.578h0.641
				C133.9,135.151,133.893,134.927,133.893,134.663z M133.22,133.765c0,0.513-0.281,1.106-1.083,1.106
				c-0.498,0-0.818-0.185-0.818-0.618c0-0.609,0.833-0.73,1.516-0.73h0.385V133.765z"/>
			<path fill="#FFFFFF" d="M136.24,133.146c-0.321-0.071-0.971-0.134-0.971-0.594c0-0.272,0.297-0.426,0.634-0.426
				c0.362,0,0.611,0.17,0.778,0.379l0.562-0.426c-0.274-0.449-0.794-0.625-1.3-0.625c-0.713,0-1.443,0.376-1.443,1.171
				c0,0.728,0.545,0.929,1.163,1.083c0.313,0.071,0.914,0.152,0.914,0.584c0,0.33-0.402,0.481-0.77,0.481
				c-0.417,0-0.69-0.217-0.923-0.45l-0.544,0.45c0.377,0.514,0.841,0.674,1.467,0.674c0.754,0,1.54-0.337,1.54-1.196
				C137.348,133.541,136.866,133.299,136.24,133.146z"/>
			<path fill="#FFFFFF" d="M139.636,131.455c-1.139,0-1.965,0.858-1.965,1.996c0,1.132,0.754,1.998,1.957,1.998
				c0.73,0,1.283-0.257,1.685-0.778l-0.546-0.418c-0.28,0.345-0.601,0.57-1.042,0.57c-0.666,0-1.285-0.441-1.285-1.107h3.047v-0.256
				C141.487,132.481,140.975,131.455,139.636,131.455z M138.44,133.14c0-0.506,0.465-1.106,1.179-1.106
				c0.73,0,1.083,0.473,1.099,1.106H138.44z"/>
			<path fill="#FFFFFF" d="M129.311,135.352h0.722v-2.445c0-1.011-0.641-1.452-1.38-1.452c-0.585,0-1.066,0.28-1.25,0.681h-0.017
				v-2.08h-0.721v5.296h0.721v-1.958c0-0.881,0.458-1.268,1.06-1.268c0.457,0,0.866,0.267,0.866,0.979V135.352z"/>
			<path fill="#FFFFFF" d="M124.108,131.455c-0.513,0-1.042,0.233-1.323,0.641h-0.017v-0.545h-0.721v5.301h0.721v-2.045h0.017
				c0.256,0.393,0.777,0.643,1.323,0.643c1.17,0,1.933-0.859,1.933-1.998C126.041,132.329,125.287,131.455,124.108,131.455z
				 M124.019,134.774c-0.769,0-1.25-0.553-1.25-1.324s0.482-1.324,1.25-1.324c0.771,0,1.252,0.553,1.252,1.324
				S124.79,134.774,124.019,134.774z"/>
			<polygon fill="#FFFFFF" points="100.83,131.553 100.823,131.553 100.823,131.559 100.823,139.679 100.823,139.686 
				100.83,139.686 102.711,139.686 102.718,139.686 102.718,139.679 102.718,139.273 102.718,139.267 102.711,139.267 
				101.463,139.267 101.463,131.971 102.711,131.971 102.718,131.971 102.718,131.966 102.718,131.559 102.718,131.553 
				102.711,131.553 			"/>
			<polygon fill="#FFFFFF" points="109.678,131.553 109.671,131.553 109.671,131.559 109.671,131.966 109.671,131.971 
				109.678,131.971 110.926,131.971 110.926,139.267 109.678,139.267 109.671,139.267 109.671,139.273 109.671,139.679 
				109.671,139.686 109.678,139.686 111.559,139.686 111.565,139.686 111.565,139.679 111.565,131.559 111.565,131.553 
				111.559,131.553 			"/>
			<path fill="#FFFFFF" d="M109.457,135.44c0.004,0,0.007-0.005,0.007-0.007c0-0.004-0.002-0.007-0.007-0.008
				c0,0-0.485-0.13-0.551-0.141c-0.031-0.005-0.065-0.008-0.094-0.009c0.023-0.001,0.047-0.005,0.07-0.007
				c0.064-0.012,0.551-0.141,0.551-0.141c0.003,0,0.005-0.004,0.005-0.007c0-0.004-0.002-0.008-0.005-0.009
				c0,0-0.487-0.129-0.551-0.141c-0.028-0.004-0.059-0.006-0.086-0.008c0.091-0.019,0.542-0.138,0.542-0.138
				c0.004-0.002,0.006-0.005,0.006-0.009c0-0.003-0.002-0.007-0.006-0.007c0,0-0.485-0.129-0.551-0.141
				c-0.046-0.009-0.102-0.009-0.129-0.009c-0.021,0,0.003-0.004,0.034-0.009c0.065-0.012,0.549-0.14,0.549-0.14
				c0.004-0.003,0.006-0.005,0.006-0.009c0-0.003-0.002-0.007-0.006-0.007c0,0-0.484-0.127-0.549-0.141
				c-0.047-0.009-0.104-0.009-0.132-0.009c-0.056,0-0.102,0-0.14,0c0.026-0.002,0.056-0.005,0.083-0.009
				c0.063-0.011,0.55-0.14,0.55-0.14c0.004-0.002,0.007-0.004,0.007-0.009s-0.003-0.006-0.007-0.009c0,0-0.486-0.127-0.55-0.138
				c-0.047-0.009-0.104-0.01-0.132-0.01c-0.045,0-0.082,0-0.113,0c0.011-0.001,0.023-0.002,0.033-0.006
				c0.066-0.011,0.551-0.138,0.551-0.138c0.003-0.003,0.005-0.005,0.005-0.01c0-0.002-0.002-0.007-0.005-0.008l-0.438-0.113
				c-0.054-0.014-0.097-0.023-0.114-0.027c-0.046-0.009-0.103-0.01-0.131-0.01c-0.038,0-0.127,0-0.247,0
				c0.027,0,0.059-0.003,0.086-0.007c0.064-0.013,0.551-0.142,0.551-0.142c0.003,0,0.005-0.005,0.005-0.009
				c0-0.003-0.003-0.005-0.005-0.007c0,0-0.487-0.128-0.551-0.139c-0.047-0.009-0.103-0.011-0.131-0.011c-0.058,0-0.206,0-0.387,0
				c0.004,0,0.009,0,0.013-0.002c0.064-0.011,0.551-0.141,0.551-0.141c0.004,0,0.006-0.003,0.006-0.008
				c0-0.003-0.002-0.005-0.006-0.007c0,0-0.486-0.128-0.551-0.139c-0.046-0.011-0.104-0.011-0.131-0.011c-0.081,0-0.26,0-0.452,0
				c0.162-0.041,0.373-0.096,0.373-0.096c0.003-0.001,0.005-0.005,0.005-0.009c0-0.002-0.001-0.007-0.005-0.007
				c0,0-0.359-0.094-0.423-0.105c-0.106-0.02-0.344-0.052-0.422-0.052c-0.215,0-0.24,0-0.24,0s-0.023,0-0.238,0
				c-0.072,0-0.298,0.03-0.405,0.048c-0.064,0.012-0.427,0.107-0.427,0.107c-0.005,0.001-0.007,0.006-0.007,0.008
				c0,0.004,0.002,0.007,0.007,0.008c0,0,0.211,0.056,0.373,0.098c-0.193,0-0.372,0-0.453,0c-0.028,0-0.084,0-0.131,0.01
				c-0.065,0.012-0.551,0.141-0.551,0.141c-0.002,0-0.006,0.004-0.006,0.007c0,0.004,0.003,0.008,0.006,0.008
				c0,0,0.485,0.13,0.551,0.141c0.005,0.001,0.009,0.002,0.015,0.002c-0.184,0-0.331,0-0.389,0c-0.028,0-0.083,0.001-0.13,0.009
				c-0.065,0.013-0.551,0.141-0.551,0.141c-0.003,0-0.006,0.004-0.006,0.007c0,0.004,0.002,0.009,0.006,0.009
				c0,0,0.486,0.128,0.551,0.142c0.028,0.004,0.059,0.007,0.085,0.007c-0.119,0-0.207,0-0.247,0c-0.028,0-0.084,0.001-0.13,0.01
				c-0.017,0.002-0.059,0.013-0.114,0.027l-0.437,0.112c-0.004,0.002-0.006,0.005-0.006,0.009c0,0.005,0.002,0.007,0.006,0.01
				c0,0,0.485,0.126,0.551,0.138c0.011,0.002,0.021,0.004,0.032,0.006c-0.031,0-0.068,0-0.113,0c-0.027,0-0.084,0.001-0.131,0.01
				c-0.064,0.011-0.551,0.138-0.551,0.138c-0.004,0.003-0.006,0.005-0.006,0.009c0,0.003,0.002,0.007,0.006,0.008
				c0,0,0.486,0.129,0.551,0.14c0.027,0.004,0.056,0.007,0.081,0.009c-0.036,0-0.083,0-0.138,0c-0.028,0-0.084,0-0.131,0.009
				c-0.064,0.013-0.551,0.139-0.551,0.139c-0.003,0.001-0.006,0.006-0.006,0.009c0,0.004,0.003,0.006,0.006,0.009
				c0,0,0.487,0.127,0.551,0.14c0.03,0.005,0.056,0.009,0.035,0.009c-0.029,0-0.084,0-0.132,0.009
				c-0.064,0.012-0.551,0.141-0.551,0.141c-0.003,0-0.006,0.004-0.006,0.007c0.001,0.004,0.002,0.007,0.006,0.009
				c0,0,0.453,0.119,0.542,0.137c-0.026,0.002-0.057,0.004-0.085,0.008c-0.065,0.012-0.551,0.141-0.551,0.141
				c-0.004,0.001-0.006,0.005-0.006,0.007c0,0.004,0.002,0.007,0.006,0.009c0,0,0.486,0.127,0.551,0.141
				c0.021,0.002,0.043,0.004,0.065,0.007c-0.002,0-0.005,0-0.009,0c-0.027,0-0.083,0-0.131,0.009
				c-0.064,0.011-0.55,0.141-0.55,0.141c-0.004,0.001-0.005,0.004-0.005,0.008c0,0.002,0.001,0.007,0.005,0.007
				c0,0,0.486,0.127,0.55,0.142c0.033,0.004,0.07,0.007,0.099,0.009c-0.029,0.001-0.065,0.002-0.099,0.009
				c-0.064,0.011-0.55,0.14-0.55,0.14c-0.004,0.001-0.005,0.003-0.005,0.008c0,0.004,0.001,0.007,0.005,0.009
				c0,0,0.486,0.127,0.55,0.139c0.048,0.009,0.104,0.01,0.131,0.01c0.002,0,0.004,0,0.006,0c-0.02,0-0.042,0.003-0.062,0.007
				c-0.064,0.012-0.551,0.142-0.551,0.142c-0.004,0-0.006,0.004-0.006,0.007c0,0.004,0.002,0.006,0.006,0.006
				c0,0,0.486,0.13,0.551,0.142c0.029,0.005,0.06,0.008,0.085,0.008c-0.089,0.019-0.541,0.139-0.541,0.139
				c-0.005,0-0.006,0.005-0.006,0.007c0,0.003,0.001,0.007,0.006,0.009c0,0,0.485,0.127,0.55,0.14
				c0.048,0.009,0.104,0.01,0.131,0.01c0.021,0-0.004,0.002-0.035,0.009c-0.064,0.011-0.551,0.139-0.551,0.139
				c-0.003,0.002-0.005,0.006-0.006,0.009c0,0.005,0.003,0.007,0.006,0.008c0,0,0.487,0.129,0.551,0.14
				c0.047,0.009,0.104,0.011,0.131,0.011c0.057,0,0.102,0,0.139,0c-0.026,0-0.055,0.002-0.082,0.007
				c-0.064,0.013-0.551,0.142-0.551,0.142c-0.004,0-0.006,0.004-0.006,0.007c0,0.004,0.002,0.009,0.006,0.009
				c0,0,0.487,0.127,0.551,0.141c0.048,0.007,0.104,0.009,0.131,0.009c0.034,0,0.062,0,0.089,0c-0.004,0-0.007,0-0.009,0.001
				c-0.066,0.012-0.551,0.142-0.551,0.142c-0.004,0-0.006,0.003-0.006,0.007c0,0.002,0.002,0.007,0.006,0.008l0.437,0.112
				c0.056,0.014,0.098,0.024,0.114,0.028c0.046,0.009,0.103,0.01,0.13,0.01c0.042,0,0.142,0,0.276,0
				c-0.031,0.001-0.067,0.003-0.103,0.01c-0.065,0.011-0.551,0.139-0.551,0.139c-0.004,0-0.006,0.004-0.006,0.009
				c0,0.002,0.002,0.007,0.006,0.007c0,0,0.486,0.128,0.551,0.141c0.048,0.009,0.103,0.009,0.131,0.009c0.055,0,0.188,0,0.355,0
				c-0.107,0.025-0.533,0.136-0.533,0.136c-0.004,0.003-0.006,0.005-0.006,0.01c0,0.002,0.002,0.006,0.006,0.006
				c0,0,0.486,0.13,0.551,0.141c0.048,0.009,0.103,0.009,0.131,0.009c0.082,0,0.263,0,0.458,0c-0.164,0.042-0.394,0.104-0.394,0.104
				c-0.004,0.001-0.006,0.004-0.006,0.009c0,0.003,0.002,0.006,0.006,0.006c0,0,0.381,0.099,0.445,0.111
				c0.106,0.02,0.328,0.046,0.4,0.046c0.166,0,0.22,0,0.235,0c0,0,0.002,0,0.003,0c0.003,0,0.003,0,0.003,0c0.017,0,0.071,0,0.242,0
				c0.063,0,0.32-0.033,0.426-0.054c0.064-0.013,0.406-0.104,0.406-0.104c0.003,0,0.005-0.003,0.005-0.006
				c0-0.005-0.002-0.007-0.005-0.009c0,0-0.229-0.062-0.394-0.104c0.195,0,0.376,0,0.46,0c0.027,0,0.083,0,0.13-0.009
				c0.065-0.011,0.551-0.141,0.551-0.141c0.004,0,0.007-0.004,0.007-0.006c0-0.005-0.002-0.007-0.007-0.01
				c0,0-0.425-0.111-0.533-0.136c0.167,0,0.3,0,0.355,0c0.028,0,0.083,0,0.13-0.009c0.066-0.013,0.551-0.141,0.551-0.141
				c0.003,0,0.005-0.004,0.005-0.007c0-0.005-0.002-0.009-0.005-0.009c0,0-0.485-0.128-0.551-0.139
				c-0.033-0.007-0.072-0.009-0.102-0.01c0.134,0,0.233,0,0.277,0c0.027,0,0.084-0.001,0.131-0.01
				c0.016-0.003,0.059-0.014,0.113-0.028l0.438-0.112c0.002-0.001,0.006-0.006,0.006-0.008c0-0.004-0.002-0.007-0.006-0.007
				c0,0-0.486-0.129-0.551-0.142c-0.003-0.001-0.005-0.001-0.009-0.001c0.026,0,0.053,0,0.088,0c0.028,0,0.084-0.002,0.132-0.009
				c0.063-0.013,0.55-0.141,0.55-0.141c0.005,0,0.007-0.004,0.007-0.009c0-0.003-0.003-0.007-0.007-0.007
				c0,0-0.486-0.129-0.55-0.142c-0.028-0.005-0.057-0.007-0.083-0.007c0.039,0,0.083,0,0.14,0c0.028,0,0.084-0.001,0.132-0.011
				c0.065-0.011,0.55-0.14,0.55-0.14c0.004-0.001,0.006-0.003,0.006-0.008c0-0.002-0.002-0.007-0.006-0.009
				c0,0-0.486-0.121-0.55-0.139c-0.049-0.014-0.158-0.014-0.137-0.014l-0.583,0.001c-0.029,0-0.084,0.001-0.132,0.01
				c-0.064,0.011-0.55,0.14-0.55,0.14c-0.003,0-0.007,0.002-0.007,0.007s0.003,0.007,0.007,0.008c0,0,0.485,0.128,0.55,0.141
				c0.027,0.005,0.054,0.005,0.079,0.007c-0.034,0-0.078,0-0.136,0c-0.028,0-0.083,0.003-0.13,0.011
				c-0.064,0.012-0.551,0.139-0.551,0.139c-0.002,0.002-0.006,0.006-0.007,0.011c0,0.002,0.003,0.005,0.007,0.006
				c0,0,0.349,0.128,0.415,0.141c0.007,0.001-0.169,0.002-0.355,0.002c-0.406,0.016-0.522,0.152-0.951,0.155
				c-0.429-0.002-0.549-0.139-0.955-0.155c-0.185,0-0.362-0.001-0.354-0.002c0.064-0.013,0.415-0.141,0.415-0.141
				c0.003-0.001,0.004-0.004,0.004-0.006c0-0.005-0.002-0.008-0.004-0.011c0,0-0.486-0.126-0.551-0.139
				c-0.047-0.008-0.103-0.011-0.131-0.011c-0.057,0-0.102,0-0.136,0c0.025-0.002,0.053-0.002,0.08-0.007
				c0.064-0.013,0.549-0.141,0.549-0.141c0.005-0.001,0.007-0.003,0.007-0.008s-0.001-0.007-0.007-0.007c0,0-0.623-0.129-0.687-0.14
				c-0.048-0.009-0.104-0.01-0.132-0.01c-0.018,0,0.007-0.003,0.035-0.009c0.065-0.012,0.55-0.14,0.55-0.14
				c0.004-0.002,0.007-0.004,0.007-0.009s-0.003-0.006-0.007-0.007c0,0-0.485-0.129-0.55-0.142c-0.028-0.004-0.06-0.007-0.086-0.009
				c0.088-0.018,0.542-0.138,0.542-0.138c0.002-0.001,0.005-0.003,0.005-0.008c0-0.003-0.003-0.007-0.005-0.007
				c0,0-0.488-0.13-0.552-0.141c-0.012-0.002-0.025-0.005-0.038-0.005c0.773,0,1.976,0,1.976,0s2.377,0,2.593,0
				c0.028,0,0.083-0.001,0.13-0.01c0.066-0.011,0.551-0.139,0.551-0.139c0.004-0.002,0.007-0.005,0.007-0.009
				c0-0.005-0.002-0.007-0.007-0.008c0,0-0.485-0.129-0.551-0.14c-0.031-0.007-0.069-0.007-0.097-0.009
				c0.028-0.001,0.066-0.005,0.097-0.009C108.972,135.567,109.457,135.44,109.457,135.44z M106.183,135.275c0,0-1.207,0-1.979,0
				c0.014-0.003,0.028-0.005,0.041-0.007c0.064-0.011,0.552-0.139,0.552-0.139c0.002-0.002,0.004-0.004,0.005-0.008
				c0-0.005-0.003-0.007-0.005-0.007c0,0-0.454-0.12-0.542-0.139c0.026-0.002,0.058-0.005,0.084-0.009
				c0.065-0.011,0.551-0.14,0.551-0.14c0.004-0.001,0.007-0.004,0.007-0.008s-0.003-0.006-0.007-0.009c0,0-0.348-0.127-0.413-0.138
				c-0.029-0.005-0.053-0.01-0.035-0.01c0.029,0,0.085-0.002,0.132-0.008c0.064-0.014,0.549-0.143,0.549-0.143
				c0.004,0,0.007-0.003,0.007-0.007s-0.002-0.007-0.007-0.007c0,0-0.484-0.129-0.549-0.141c-0.027-0.005-0.054-0.007-0.08-0.008
				c0.034,0,0.08,0,0.136,0c0.029,0,0.083-0.001,0.132-0.01c0.065-0.011,0.551-0.14,0.551-0.14c0.002-0.001,0.004-0.006,0.004-0.008
				c0-0.004-0.002-0.006-0.004-0.008c-0.357-0.13-0.344-0.126-0.415-0.14c-0.018-0.004,0.155-0.007,0.355-0.007
				c0.406-0.016,0.524-0.154,0.953-0.156c0.429,0.002,0.547,0.141,0.953,0.156c0.2,0,0.373,0.002,0.356,0.007
				c-0.066,0.012-0.415,0.141-0.415,0.141c-0.003,0.001-0.006,0.003-0.006,0.007c0,0.003,0.003,0.007,0.006,0.009
				c0,0,0.487,0.128,0.552,0.14c0.047,0.009,0.103,0.01,0.13,0.01c0.057,0,0.102,0,0.136,0c-0.025,0.001-0.052,0.003-0.079,0.008
				c-0.064,0.011-0.55,0.141-0.55,0.141c-0.004,0-0.007,0.004-0.007,0.007s0.002,0.006,0.007,0.008c0,0,0.485,0.127,0.55,0.141
				c0.048,0.008,0.104,0.008,0.132,0.008c0.018,0-0.006,0.004-0.036,0.01c-0.064,0.011-0.413,0.138-0.413,0.138
				c-0.004,0.003-0.006,0.005-0.006,0.009s0.003,0.007,0.006,0.009c0,0,0.486,0.128,0.551,0.139
				c0.027,0.005,0.059,0.007,0.086,0.009c-0.088,0.019-0.542,0.139-0.542,0.139c-0.003,0-0.007,0.004-0.007,0.007
				c0.001,0.003,0.004,0.006,0.007,0.008c0,0,0.485,0.128,0.551,0.141c0.012,0,0.025,0.002,0.038,0.005
				C107.438,135.275,106.183,135.275,106.183,135.275z"/>
			<path fill="#FFFFFF" d="M142.39,131.966c0.028-0.024,0.043-0.062,0.043-0.112c0-0.057-0.018-0.099-0.052-0.125
				c-0.035-0.025-0.085-0.038-0.153-0.038h-0.215v0.563h0.093v-0.24h0.087l0.146,0.24h0.105l-0.158-0.248
				C142.328,132.003,142.363,131.988,142.39,131.966z M142.209,131.935h-0.104v-0.164h0.111c0.014,0,0.028,0,0.043,0.001
				c0.014,0.001,0.028,0.006,0.039,0.01c0.012,0.007,0.022,0.014,0.029,0.024c0.009,0.01,0.013,0.023,0.013,0.042
				c0,0.021-0.004,0.037-0.011,0.047c-0.007,0.013-0.017,0.021-0.028,0.026c-0.013,0.007-0.026,0.011-0.043,0.014
				C142.244,131.935,142.227,131.935,142.209,131.935z"/>
			<path fill="#FFFFFF" d="M142.665,131.755c-0.026-0.062-0.063-0.117-0.109-0.16c-0.046-0.046-0.1-0.08-0.159-0.104
				c-0.061-0.024-0.124-0.036-0.189-0.036c-0.068,0-0.132,0.011-0.193,0.036c-0.06,0.025-0.114,0.058-0.16,0.104
				c-0.045,0.043-0.083,0.098-0.109,0.16c-0.027,0.064-0.041,0.132-0.041,0.208c0,0.074,0.013,0.141,0.038,0.203
				c0.025,0.061,0.059,0.115,0.104,0.162c0.045,0.045,0.096,0.081,0.159,0.105c0.061,0.027,0.128,0.04,0.203,0.04
				c0.066,0,0.129-0.013,0.189-0.038c0.06-0.024,0.113-0.059,0.159-0.104c0.045-0.043,0.083-0.097,0.109-0.162
				c0.026-0.062,0.04-0.132,0.04-0.208S142.691,131.819,142.665,131.755z M142.566,132.135c-0.02,0.051-0.047,0.095-0.083,0.133
				c-0.036,0.036-0.078,0.067-0.124,0.086c-0.048,0.02-0.098,0.031-0.152,0.031c-0.062,0-0.116-0.012-0.165-0.034
				c-0.048-0.023-0.088-0.052-0.123-0.09c-0.034-0.038-0.06-0.083-0.078-0.134c-0.018-0.052-0.028-0.105-0.028-0.164
				c0-0.061,0.011-0.118,0.031-0.17s0.048-0.096,0.083-0.132c0.035-0.038,0.077-0.066,0.124-0.088
				c0.048-0.021,0.099-0.029,0.156-0.029c0.054,0,0.104,0.008,0.152,0.029c0.046,0.022,0.088,0.05,0.124,0.088
				c0.036,0.036,0.062,0.081,0.083,0.132c0.021,0.052,0.031,0.109,0.031,0.17C142.597,132.026,142.586,132.084,142.566,132.135z"/>
		</g>
	</g>
	<g>
		<g>
			<path id="monitor_2_" fill="#E3E4E5" d="M1161.484,535.57c-0.002,1.372-1.305,2.481-2.678,2.479l-133.926-0.248
				c-1.372-0.006-2.294-1.116-2.291-2.49v-96.849c0.004-1.372,1.117-2.481,2.487-2.478l133.929,0.25
				c1.37,0.001,2.481,1.113,2.479,2.487V535.57z"/>
			
				<rect id="stand_2_" x="1074.832" y="537.888" transform="matrix(1 0.002 -0.002 1 1.0703 -2.132)" fill="#D1D3D4" width="33.99" height="17.747"/>
			
				<rect id="base_1_" x="1064.726" y="555.638" transform="matrix(1 0.002 -0.002 1 1.1091 -2.1652)" fill="#E3E4E5" width="54.14" height="4.524"/>
			<g>
				<polygon fill="#FFFFFF" points="1157.065,512.365 1026.904,512.12 1027.043,440.826 1157.205,441.069 				"/>
			</g>
		</g>
		<g>
			<path fill="#FEDFC4" d="M1177.579,487.379c0.357,0.97,4.009,15.564,3.187,20.477c-0.312,2.205-2.042,19.054,8.842,26.21
				c1.023,2.81,2.299,8.684,2.299,8.684l27.428-2.759l-8.938-43.057L1177.579,487.379z"/>
			<path fill="#AA7C50" d="M1188.15,509.965c0.952,1.844,6.812,9.541,7.954,12.565c1.018,2.694,4.488,9.94,6.523,9.756l27.689-0.86
				c0.785-1.447,3.713-5.898,8.026-14.331c2.672-5.229,5.65-8.576,6.419-22.396c2.335-10.414,2.693-25.076-11.31-34.293
				c-2.979-1.958-8.079-7.96-15.383-8.439c-7.303-0.478-18.132-2.087-24.655,2.341c-4.627,3.143-12.241,9.591-13.979,18.09
				c-1.733,8.498-1.198,13.37-0.838,16.899c0.358,3.531,2.146,8.044,2.493,9.44c0.449,1.798,1.971,8.259,1.971,8.259l2.854,0.957
				l0.804-5.783L1188.15,509.965z"/>
			<path fill="#D1D3D4" d="M1242.562,539.109c0.12-2.632-0.373-6.464-5.699-8.8c-5.328-2.335-13.885-3.47-35.97-0.058
				c-9.038,2.753-14.93,5.866-17.308,7.719c0,0-2.253,0.965-2.253,6.047"/>
			<path fill="#E7E8E9" d="M1149.243,560.04c0.841-1.557,3.771-4.668,6.345-5.565c2.572-0.896,18.013-6.703,27.59-11.011
				c9.576-4.312,43.331-6.164,55.062-4.849c11.731,1.316,22.799,6.919,27.473,10.832c4.67,3.913,6.787,10.641,6.787,10.641
				L1149.243,560.04"/>
			<g>
				<path fill="#FFFFFF" d="M1155.588,554.475c0,0,1.837-0.794,5.052-2.185c1.612-0.68,3.571-1.506,5.817-2.453
					c2.22-0.996,4.724-2.118,7.456-3.343c2.734-1.204,5.696-2.509,8.829-3.889c0.906-0.351,1.608-0.675,2.499-0.964
					c0.879-0.259,1.784-0.561,2.678-0.785c0.893-0.211,1.794-0.424,2.705-0.64c0.914-0.174,1.837-0.35,2.768-0.526
					c3.729-0.641,7.589-1.204,11.527-1.579c3.938-0.377,7.941-0.704,11.952-0.899c4.014-0.175,8.027-0.292,11.991-0.252
					c1.983,0.018,3.949,0.059,5.902,0.194c0.973,0.042,1.95,0.146,2.918,0.24l0.773,0.08l0.699,0.118
					c0.466,0.078,0.93,0.156,1.392,0.234c0.927,0.175,1.832,0.266,2.755,0.507c0.918,0.234,1.828,0.466,2.728,0.695
					c0.909,0.21,1.765,0.507,2.612,0.797c0.848,0.286,1.686,0.569,2.512,0.848c3.241,1.286,6.255,2.625,8.866,4.191
					c2.644,1.492,4.946,3.105,6.723,4.893c0.877,0.825,1.575,1.81,2.219,2.68c0.301,0.447,0.55,0.895,0.807,1.311
					c0.262,0.414,0.49,0.819,0.679,1.22c0.198,0.394,0.387,0.767,0.563,1.117c0.153,0.36,0.297,0.699,0.431,1.014
					c0.277,0.624,0.458,1.178,0.622,1.617c0.309,0.889,0.437,1.372,0.437,1.372s-0.175-0.47-0.566-1.319
					c-0.401-0.844-1-2.082-1.932-3.546c-0.216-0.377-0.472-0.754-0.759-1.137c-0.283-0.384-0.562-0.801-0.882-1.204
					c-0.685-0.766-1.342-1.625-2.303-2.413c-1.767-1.551-4.108-2.977-6.746-4.303c-2.615-1.381-5.621-2.53-8.8-3.676
					c-0.812-0.239-1.633-0.482-2.465-0.729c-0.831-0.25-1.671-0.507-2.529-0.669c-0.854-0.192-1.717-0.386-2.588-0.581
					c-0.862-0.211-1.816-0.287-2.732-0.439c-3.604-0.615-7.439-0.569-11.345-0.62c-3.905-0.012-7.884,0.139-11.855,0.335
					c-3.975,0.164-7.942,0.459-11.841,0.802c-3.896,0.36-7.721,0.774-11.389,1.337c-0.914,0.152-1.819,0.303-2.717,0.453
					c-0.887,0.18-1.766,0.358-2.635,0.535c-0.861,0.184-1.659,0.421-2.481,0.621c-0.797,0.217-1.697,0.587-2.405,0.821
					c-3.216,1.243-6.256,2.419-9.062,3.504c-2.811,1.062-5.386,2.035-7.67,2.897c-2.309,0.776-4.322,1.454-5.98,2.011
					C1157.489,553.854,1155.588,554.475,1155.588,554.475z"/>
			</g>
			<path fill="#FEDFC4" d="M1186.657,505.637c-0.074-1.057-2.502-4.11-2.985-5.001c-0.479-0.892,0.195-1.4,0.919-1.81
				c0.72-0.41,2.492,0.362,3,1.036c0.505,0.674,1.373,2.963,1.979,4.797c0.608,1.832-1.002,6.025-1.123,7.158
				s0.652,1.49,0.797,2.504c0.142,1.017-1.141,3.427-3.027,2.077"/>
		</g>
		<g>
			<g>
				<g>
					<path fill="#FFDF41" d="M1248.952,492.2l-1.326-6.074c-1.246-16.436-9.75-30.273-21.535-36.641v-4.475h-9.594v1.143
						c-0.38-0.062-0.757-0.127-1.141-0.18v-4.084h-9.594v4.397c-0.384,0.072-0.766,0.159-1.145,0.249v-1.525h-9.594v5.58
						c-8.587,5.391-15.198,14.861-18.134,26.335c-0.715,2.799-1.206,5.72-1.461,8.727l-4.438,2.457c0,0,23.646,14.294,60.052,13.123
						C1257.888,499.963,1248.952,492.2,1248.952,492.2z"/>
					<g>
						<path fill="#FFFFFF" d="M1204.961,444.972c0,0,0.073,0.046,0.211,0.132c0.154,0.095,0.359,0.232,0.602,0.405
							c0.492,0.35,1.17,0.863,1.919,1.544c1.515,1.337,3.312,3.368,4.597,5.701c0.344,0.567,0.618,1.173,0.884,1.767
							c0.293,0.579,0.469,1.2,0.682,1.777c0.229,0.571,0.325,1.165,0.472,1.706c0.153,0.54,0.224,1.067,0.286,1.552
							c0.058,0.484,0.15,0.921,0.16,1.316c0.014,0.395,0.025,0.738,0.035,1.021c0.02,0.563,0.03,0.885,0.03,0.885
							s-0.05-0.318-0.138-0.875c-0.044-0.276-0.098-0.612-0.158-0.998c-0.058-0.385-0.202-0.806-0.316-1.269
							c-0.118-0.463-0.247-0.962-0.462-1.466c-0.206-0.506-0.363-1.057-0.652-1.578c-0.271-0.525-0.505-1.087-0.853-1.603
							c-0.319-0.528-0.643-1.062-1.032-1.552c-0.355-0.513-0.761-0.986-1.167-1.443c-0.384-0.474-0.845-0.87-1.241-1.289
							c-0.438-0.383-0.842-0.77-1.263-1.093c-0.413-0.331-0.809-0.635-1.19-0.893c-0.752-0.53-1.412-0.912-1.871-1.16
							c-0.234-0.126-0.409-0.215-0.519-0.265c-0.127-0.059-0.194-0.091-0.194-0.091L1204.961,444.972z"/>
					</g>
					<g>
						<path fill="#FFFFFF" d="M1215.592,444.972c0,0,0.073,0.046,0.211,0.132c0.154,0.095,0.359,0.232,0.602,0.405
							c0.492,0.35,1.17,0.863,1.918,1.544c1.515,1.337,3.312,3.369,4.596,5.701c0.344,0.567,0.618,1.173,0.883,1.767
							c0.294,0.58,0.47,1.201,0.682,1.777c0.229,0.571,0.326,1.166,0.472,1.707c0.153,0.54,0.224,1.066,0.285,1.551
							c0.058,0.484,0.15,0.921,0.161,1.316c0.014,0.395,0.025,0.738,0.035,1.021c0.019,0.562,0.029,0.884,0.029,0.884
							s-0.05-0.318-0.138-0.875c-0.044-0.276-0.097-0.612-0.158-0.998c-0.057-0.385-0.202-0.806-0.315-1.269
							c-0.118-0.463-0.248-0.962-0.462-1.466c-0.206-0.506-0.363-1.057-0.651-1.577c-0.272-0.526-0.505-1.088-0.853-1.603
							c-0.319-0.528-0.643-1.062-1.032-1.553c-0.354-0.513-0.76-0.986-1.166-1.443c-0.384-0.474-0.845-0.87-1.242-1.289
							c-0.438-0.383-0.84-0.77-1.262-1.093c-0.413-0.331-0.809-0.635-1.19-0.893c-0.751-0.53-1.411-0.912-1.871-1.16
							c-0.233-0.127-0.408-0.215-0.518-0.265c-0.127-0.059-0.194-0.091-0.194-0.091L1215.592,444.972z"/>
					</g>
					<rect x="1210.665" y="443.973" fill="#FFDF41" width="4.685" height="3.829"/>
				</g>
				<rect x="1199.929" y="445.053" fill="#FFDF41" width="4.685" height="3.831"/>
			</g>
			<g>
				<path fill="#FFFFFF" d="M1250.252,492.22c0,0-0.243,0.146-0.697,0.417c-0.446,0.273-1.102,0.677-2.037,1.171
					c-0.925,0.472-2.069,1.018-3.428,1.484c-0.668,0.271-1.4,0.475-2.173,0.684c-0.385,0.107-0.779,0.218-1.185,0.33
					c-0.405,0.104-0.827,0.169-1.254,0.258c-0.858,0.146-1.741,0.388-2.672,0.471c-0.927,0.108-1.886,0.221-2.87,0.335
					c-0.986,0.07-2,0.097-3.035,0.148c-0.517,0.019-1.04,0.055-1.566,0.06c-0.527-0.012-1.059-0.022-1.595-0.034
					c-1.071-0.025-2.16-0.052-3.262-0.078c-1.096-0.091-2.205-0.183-3.323-0.275c-2.242-0.129-4.485-0.519-6.737-0.813l-1.687-0.234
					l-1.669-0.314c-1.109-0.211-2.215-0.422-3.312-0.63c-2.201-0.374-4.324-0.94-6.393-1.418c-2.067-0.483-4.064-0.95-5.929-1.509
					c-1.872-0.526-3.641-1.023-5.274-1.482c-1.639-0.436-3.102-0.972-4.418-1.375c-1.312-0.421-2.455-0.789-3.396-1.091
					c-1.882-0.605-2.957-0.951-2.957-0.951s1.088,0.306,2.991,0.84c0.952,0.268,2.107,0.592,3.433,0.964
					c1.33,0.354,2.808,0.834,4.46,1.207c1.646,0.397,3.429,0.827,5.313,1.282c1.878,0.486,3.885,0.878,5.959,1.282
					c2.076,0.397,4.206,0.883,6.405,1.171c1.096,0.167,2.199,0.334,3.308,0.502l1.664,0.251l1.677,0.169
					c2.237,0.208,4.466,0.511,6.673,0.555c1.102,0.051,2.194,0.101,3.273,0.149c1.077-0.015,2.142-0.029,3.188-0.044
					c0.522-0.008,1.041-0.016,1.555-0.023c0.512-0.023,1.017-0.078,1.517-0.115c0.999-0.088,1.979-0.148,2.926-0.252
					c0.938-0.145,1.852-0.286,2.735-0.423c0.889-0.111,1.707-0.374,2.514-0.541c0.399-0.098,0.796-0.174,1.172-0.285
					c0.372-0.119,0.736-0.236,1.091-0.35c0.712-0.222,1.385-0.434,1.983-0.706c1.231-0.474,2.239-1.005,3.059-1.46
					c0.798-0.458,1.45-0.892,1.896-1.188c0.444-0.289,0.681-0.442,0.681-0.442L1250.252,492.22z"/>
			</g>
		</g>
		<g>
			<defs>
				<polygon id="SVGID_1_" points="1157.065,512.365 1026.904,512.12 1027.043,440.826 1157.205,441.069 				"/>
			</defs>
			<clipPath id="SVGID_2_">
				<use xlink:href="#SVGID_1_"  overflow="visible"/>
			</clipPath>
			<g clip-path="url(#SVGID_2_)">
				<path fill="none" stroke="#28AAE2" stroke-width="1.3248" stroke-miterlimit="10" d="M1027.06,495.407h7.194
					c0,0,0.893-47.211,12.304-47.211c8.739,0,9.453,47.863,9.453,47.863l16.854-0.035c0,0-1.338-32.162,8.293-32.162
					c8.828,0,9.363,31.545,9.363,31.545h12.308c0,0,2.942-41.644,17.39-41.644c14.178,0,17.924,41.644,17.924,41.644h20.484"/>
				<path fill="none" stroke="#EE2B7B" stroke-width="1.3248" stroke-miterlimit="10" d="M1025.098,502.277
					c0,0,5.457-44.59,18.376-44.59c13.164,0,15.845,44.59,15.845,44.59h11.213c0,0,0.488-33.771,8.532-33.771
					c8.776,0,7.558,34.434,7.558,34.434l15.357,0.033c0,0,0.653-51.244,8.613-51.244c10.402,0,11.215,50.549,11.215,50.549h37.551"
					/>
				<path fill="none" stroke="#39B54A" stroke-width="1.3248" stroke-miterlimit="10" d="M1137.651,495.423
					c0,0-3.414-31.145-16.334-31.145c-13.164,0-15.845,31.145-15.845,31.145h-11.213c0,0-0.49-23.589-8.532-23.589
					c-8.777,0-7.558,24.054-7.558,24.054l-15.357,0.021c0,0-0.65-35.793-8.613-35.793c-10.402,0-11.214,35.307-11.214,35.307
					h-14.787"/>
				
					<line fill="none" stroke="#662D91" stroke-width="1.3248" stroke-miterlimit="10" x1="1024.728" y1="483.772" x2="1158.952" y2="483.772"/>
			</g>
		</g>
	</g>
	<g>
		
			<rect x="680.883" y="460.776" transform="matrix(1 0.002 -0.002 1 1.0032 -1.4168)" fill="#FFFFFF" width="39.573" height="68.528"/>
		<g>
			<path fill="#FEDFC4" d="M712.088,553.441l28.947,0.04l-2.85-41.59l-6.674-26.701l-23.365-11.834c0,0-24.578-8.801-24.578-7.587
				c0,1.217,11.78,66.701,11.78,66.701L712.088,553.441z"/>
			<path fill="#FEDFC4" d="M674.506,451.004c-1.239-1.673-3.212-2.761-5.444-2.761c-3.754,0-6.797,3.063-6.797,6.842
				c0,2.058,0.908,3.9,2.338,5.154l-0.014,0.258l16.723,16.633l10.554-8.854L674.506,451.004z"/>
			<g>
				<g>
					<path fill="#E3E4E5" d="M724.776,535.345c-0.004,1.888-1.54,3.421-3.433,3.419l-41.51-0.081
						c-1.892-0.003-3.421-1.542-3.417-3.431l0.146-76.501c0.004-1.891,1.538-3.419,3.43-3.417l41.511,0.08
						c1.893,0.004,3.422,1.54,3.419,3.432L724.776,535.345z"/>
					
						<rect x="680.883" y="460.776" transform="matrix(1 0.002 -0.002 1 1.0032 -1.4168)" fill="#FFFFFF" width="39.573" height="68.528"/>
					<path fill="#FFFFFF" d="M703.263,534.358c0,1.475-1.198,2.669-2.673,2.662c-1.471,0-2.663-1.198-2.662-2.67
						c0.005-1.474,1.201-2.664,2.674-2.662C702.075,531.691,703.266,532.886,703.263,534.358z"/>
				</g>
			</g>
			<g>
				<text transform="matrix(1 0 0 1 683.8291 510.7305)"><tspan x="0" y="0" fill="#5F6062" font-family="'Helvetica-Light'" font-size="1.5181">Peak Power: </tspan><tspan x="8.858" y="0" fill="#5F6062" font-family="'Helvetica-Bold'" font-size="1.5181">4.91</tspan><tspan x="11.812" y="0" fill="#5F6062" font-family="'Helvetica-Light'" font-size="1.5181"> kW at 12:45</tspan><tspan x="0" y="1.822" fill="#5F6062" font-family="'Helvetica-Light'" font-size="1.5181">Peak Power: </tspan><tspan x="8.858" y="1.822" fill="#5F6062" font-family="'Helvetica-Bold'" font-size="1.5181">190</tspan><tspan x="11.391" y="1.822" fill="#5F6062" font-family="'Helvetica-Light'" font-size="1.5181"> kW at 12:45</tspan></text>
				<text transform="matrix(1 0 0 1 683.8291 508.7852)" fill="#5F6062" font-family="'Helvetica-Light'" font-size="4.0482">24.9 kWh</text>
				<rect x="683.569" y="502.45" fill="#1D75BC" width="14.581" height="1.715"/>
				<text transform="matrix(1 0 0 1 683.8291 523.8184)"><tspan x="0" y="0" fill="#5F6062" font-family="'Helvetica-Light'" font-size="1.5181">Peak Power: </tspan><tspan x="8.858" y="0" fill="#5F6062" font-family="'Helvetica-Bold'" font-size="1.5181">4.91</tspan><tspan x="11.812" y="0" fill="#5F6062" font-family="'Helvetica-Light'" font-size="1.5181"> kW at 12:45</tspan><tspan x="0" y="1.822" fill="#5F6062" font-family="'Helvetica-Light'" font-size="1.5181">Peak Power: </tspan><tspan x="8.858" y="1.822" fill="#5F6062" font-family="'Helvetica-Bold'" font-size="1.5181">190</tspan><tspan x="11.391" y="1.822" fill="#5F6062" font-family="'Helvetica-Light'" font-size="1.5181"> kW at 12:45</tspan></text>
				<text transform="matrix(1 0 0 1 683.8291 521.8711)" fill="#5F6062" font-family="'Helvetica-Light'" font-size="4.0482">24.9 kWh</text>
				<rect x="683.569" y="515.538" fill="#1D75BC" width="14.581" height="1.715"/>
			</g>
			<path fill="#FEDFC4" d="M681.966,492.833l-4.632-4.632c-1.174-1.402-2.96-2.3-4.96-2.3c-3.539,0-6.406,2.795-6.406,6.243
				c0,1.374,0.456,2.644,1.228,3.675c0.213,0.283,0.458,0.544,0.716,0.789l-0.023,0.021l4.869,4.797
				c1.174,1.426,2.974,2.342,4.996,2.342c3.536,0,6.404-2.796,6.404-6.244C684.157,495.652,683.306,493.978,681.966,492.833z"/>
			<path fill="#FEDFC4" d="M681.966,477.007l-4.632-4.633c-1.174-1.402-2.96-2.3-4.96-2.3c-3.539,0-6.406,2.796-6.406,6.245
				c0,1.372,0.456,2.64,1.228,3.673c0.213,0.286,0.458,0.544,0.716,0.791l-0.023,0.021l4.869,4.794
				c1.174,1.426,2.974,2.342,4.996,2.342c3.536,0,6.404-2.795,6.404-6.242C684.157,479.827,683.306,478.149,681.966,477.007z"/>
			<path fill="#FEDFC4" d="M682.373,508.862l-4.63-4.63c-1.176-1.405-2.959-2.301-4.962-2.301c-3.539,0-6.405,2.795-6.405,6.243
				c0,1.373,0.455,2.643,1.228,3.674c0.212,0.285,0.457,0.546,0.716,0.79l-0.023,0.021l4.869,4.796
				c1.174,1.426,2.975,2.342,4.995,2.342c3.538,0,6.404-2.795,6.404-6.243C684.564,511.683,683.712,510.007,682.373,508.862z"/>
			<g>
				<rect x="683.569" y="472.288" fill="#E7E8E9" width="34.958" height="6.212"/>
				<rect x="712.302" y="473.844" fill="#1D75BC" width="3.098" height="3.099"/>
				<rect x="680.819" y="460.736" fill="#595A5C" width="39.701" height="3.098"/>
				<rect x="698.494" y="460.736" fill="#F37321" width="5.108" height="3.098"/>
				<text transform="matrix(1 0 0 1 685.2988 476.0391)" fill="#1D75BC" font-family="'Helvetica-Bold'" font-size="2.3969">View Environ</text>
				<text transform="matrix(1 0 0 1 685.2988 468.6777)" fill="#1D75BC" font-family="'Helvetica-Bold'" font-size="2.3969">Residence</text>
				<rect x="683.569" y="482.424" fill="#E7E8E9" width="34.958" height="6.212"/>
				<rect x="712.302" y="483.98" fill="#1D75BC" width="3.098" height="3.098"/>
				<text transform="matrix(1 0 0 1 685.2988 486.1758)" fill="#1D75BC" font-family="'Helvetica-Bold'" font-size="2.3969">View Array</text>
				<rect x="683.569" y="492.56" fill="#E7E8E9" width="34.958" height="6.213"/>
				<rect x="712.302" y="494.116" fill="#1D75BC" width="3.098" height="3.098"/>
				<text transform="matrix(1 0 0 1 685.2988 496.3115)" fill="#1D75BC" font-family="'Helvetica-Bold'" font-size="2.3969">View Graph</text>
			</g>
			<path fill="#FEDFC4" d="M741.944,519.509c0-5.182-0.927-9.967-2.491-13.837c-0.462-3.057-1.17-6.199-2.219-9.343
				c-3.942-13.958-6.675-16.991-8.191-21.24c-1.519-4.249-3.863-5.212-8.416-3.089c-4.552,2.126-6.453,8.551,2.044,20.082
				c1.057,1.434,1.883,3.254,2.531,5.317c-5.073,3.07-8.732,11.805-8.732,22.109c0,10.661,3.918,19.643,9.265,22.407l-0.333,9.637
				l11.095-0.978l0.93-13.279C740.189,533.023,741.944,526.643,741.944,519.509z"/>
		</g>
	</g>
	<g>
		<g>
			<path fill="#FEDFC4" d="M1336.954,560.144l30.393-0.004l-4.294-41.544l-6.676-26.702l-23.364-11.835c0,0-24.578-8.8-24.578-7.586
				s11.782,66.701,11.782,66.701L1336.954,560.144z"/>
			<path fill="#FEDFC4" d="M1299.372,457.707c-1.239-1.672-3.212-2.76-5.443-2.76c-3.755,0-6.798,3.062-6.798,6.842
				c0,2.058,0.907,3.899,2.337,5.152l-0.014,0.258l16.724,16.633l10.553-8.854L1299.372,457.707z"/>
			<g>
				<g>
					<path fill="#E2E3E4" d="M1349.644,542.048c-0.004,1.887-1.54,3.422-3.434,3.418l-41.512-0.079
						c-1.891-0.003-3.419-1.541-3.416-3.433l0.146-76.5c0.004-1.889,1.537-3.418,3.431-3.417l41.512,0.081
						c1.892,0.004,3.422,1.54,3.419,3.43L1349.644,542.048z"/>
					
						<rect x="1305.75" y="467.479" transform="matrix(1 0.002 -0.002 1 1.0106 -2.6631)" fill="#FFFFFF" width="39.355" height="67.989"/>
					<path fill="#FFFFFF" d="M1328.129,541.062c0,1.472-1.197,2.668-2.674,2.661c-1.472-0.002-2.663-1.195-2.661-2.671
						c0.005-1.472,1.2-2.663,2.675-2.663C1326.942,538.396,1328.132,539.589,1328.129,541.062z"/>
					<g>
						<g>
							<g>
								<rect x="1306.833" y="469.303" fill="#95D4F5" width="18.532" height="9.114"/>
								<path fill="#1D75BC" d="M1325.202,469.466v8.788h-18.206v-8.788H1325.202 M1325.528,469.14h-18.858v9.44h18.858V469.14
									L1325.528,469.14z"/>
							</g>
							<rect x="1307.014" y="471.613" fill="#28AAE2" width="5.812" height="4.217"/>
							<text transform="matrix(1 0 0 1 1307.959 473.3672)"><tspan x="0" y="0" fill="#FFFFFF" font-family="'Helvetica'" font-size="1.5676">1.33</tspan><tspan x="0" y="1.881" fill="#FFFFFF" font-family="'Helvetica'" font-size="1.5676">kWh</tspan></text>
						</g>
						<g>
							<g>
								<rect x="1325.421" y="469.303" fill="#95D4F5" width="18.533" height="9.114"/>
								<path fill="#1D75BC" d="M1343.791,469.466v8.788h-18.207v-8.788H1343.791 M1344.117,469.14h-18.859v9.44h18.859V469.14
									L1344.117,469.14z"/>
							</g>
							<rect x="1325.604" y="471.613" fill="#28AAE2" width="5.811" height="4.217"/>
							<text transform="matrix(1 0 0 1 1326.5479 473.3672)"><tspan x="0" y="0" fill="#FFFFFF" font-family="'Helvetica'" font-size="1.5676">1.33</tspan><tspan x="0" y="1.881" fill="#FFFFFF" font-family="'Helvetica'" font-size="1.5676">kWh</tspan></text>
						</g>
						<g>
							<g>
								<rect x="1306.833" y="478.502" fill="#95D4F5" width="18.532" height="9.113"/>
								<path fill="#1D75BC" d="M1325.202,478.665v8.787h-18.206v-8.787H1325.202 M1325.528,478.339h-18.858v9.439h18.858V478.339
									L1325.528,478.339z"/>
							</g>
							<rect x="1307.014" y="480.812" fill="#28AAE2" width="5.812" height="4.217"/>
							<text transform="matrix(1 0 0 1 1307.959 482.5645)"><tspan x="0" y="0" fill="#FFFFFF" font-family="'Helvetica'" font-size="1.5676">1.33</tspan><tspan x="0" y="1.881" fill="#FFFFFF" font-family="'Helvetica'" font-size="1.5676">kWh</tspan></text>
						</g>
						<g>
							<g>
								<rect x="1325.421" y="478.502" fill="#95D4F5" width="18.533" height="9.113"/>
								<path fill="#1D75BC" d="M1343.791,478.665v8.787h-18.207v-8.787H1343.791 M1344.117,478.339h-18.859v9.439h18.859V478.339
									L1344.117,478.339z"/>
							</g>
							<rect x="1325.604" y="480.812" fill="#28AAE2" width="5.811" height="4.217"/>
							<text transform="matrix(1 0 0 1 1326.5479 482.5645)"><tspan x="0" y="0" fill="#FFFFFF" font-family="'Helvetica'" font-size="1.5676">1.33</tspan><tspan x="0" y="1.881" fill="#FFFFFF" font-family="'Helvetica'" font-size="1.5676">kWh</tspan></text>
						</g>
						<g>
							<g>
								<rect x="1306.833" y="487.7" fill="#95D4F5" width="18.532" height="9.112"/>
								<path fill="#1D75BC" d="M1325.202,487.863v8.786h-18.206v-8.786H1325.202 M1325.528,487.537h-18.858v9.438h18.858V487.537
									L1325.528,487.537z"/>
							</g>
							<rect x="1307.014" y="490.011" fill="#28AAE2" width="5.812" height="4.217"/>
							<text transform="matrix(1 0 0 1 1307.959 491.7637)"><tspan x="0" y="0" fill="#FFFFFF" font-family="'Helvetica'" font-size="1.5676">1.33</tspan><tspan x="0" y="1.881" fill="#FFFFFF" font-family="'Helvetica'" font-size="1.5676">kWh</tspan></text>
						</g>
						<g>
							<g>
								<rect x="1325.421" y="487.7" fill="#95D4F5" width="18.533" height="9.112"/>
								<path fill="#1D75BC" d="M1343.791,487.863v8.786h-18.207v-8.786H1343.791 M1344.117,487.537h-18.859v9.438h18.859V487.537
									L1344.117,487.537z"/>
							</g>
							<rect x="1325.604" y="490.011" fill="#28AAE2" width="5.811" height="4.217"/>
							<text transform="matrix(1 0 0 1 1326.5479 491.7637)"><tspan x="0" y="0" fill="#FFFFFF" font-family="'Helvetica'" font-size="1.5676">1.33</tspan><tspan x="0" y="1.881" fill="#FFFFFF" font-family="'Helvetica'" font-size="1.5676">kWh</tspan></text>
						</g>
						<g>
							<g>
								<rect x="1306.833" y="496.898" fill="#95D4F5" width="18.532" height="9.112"/>
								<path fill="#1D75BC" d="M1325.202,497.062v8.786h-18.206v-8.786H1325.202 M1325.528,496.735h-18.858v9.438h18.858V496.735
									L1325.528,496.735z"/>
							</g>
							<rect x="1307.014" y="499.209" fill="#28AAE2" width="5.812" height="4.216"/>
							<text transform="matrix(1 0 0 1 1307.959 500.9609)"><tspan x="0" y="0" fill="#FFFFFF" font-family="'Helvetica'" font-size="1.5676">1.33</tspan><tspan x="0" y="1.881" fill="#FFFFFF" font-family="'Helvetica'" font-size="1.5676">kWh</tspan></text>
						</g>
						<g>
							<g>
								<rect x="1325.421" y="496.898" fill="#95D4F5" width="18.533" height="9.112"/>
								<path fill="#1D75BC" d="M1343.791,497.062v8.786h-18.207v-8.786H1343.791 M1344.117,496.735h-18.859v9.438h18.859V496.735
									L1344.117,496.735z"/>
							</g>
							<rect x="1325.604" y="499.209" fill="#28AAE2" width="5.811" height="4.216"/>
							<text transform="matrix(1 0 0 1 1326.5479 500.9609)"><tspan x="0" y="0" fill="#FFFFFF" font-family="'Helvetica'" font-size="1.5676">1.33</tspan><tspan x="0" y="1.881" fill="#FFFFFF" font-family="'Helvetica'" font-size="1.5676">kWh</tspan></text>
						</g>
						<g>
							<g>
								<rect x="1306.833" y="506.096" fill="#95D4F5" width="18.532" height="9.114"/>
								<path fill="#1D75BC" d="M1325.202,506.259v8.788h-18.206v-8.788H1325.202 M1325.528,505.933h-18.858v9.44h18.858V505.933
									L1325.528,505.933z"/>
							</g>
							<rect x="1307.014" y="508.406" fill="#28AAE2" width="5.812" height="4.217"/>
							<text transform="matrix(1 0 0 1 1307.959 510.1602)"><tspan x="0" y="0" fill="#FFFFFF" font-family="'Helvetica'" font-size="1.5676">1.33</tspan><tspan x="0" y="1.881" fill="#FFFFFF" font-family="'Helvetica'" font-size="1.5676">kWh</tspan></text>
						</g>
						<g>
							<g>
								<rect x="1325.421" y="506.096" fill="#95D4F5" width="18.533" height="9.114"/>
								<path fill="#1D75BC" d="M1343.791,506.259v8.788h-18.207v-8.788H1343.791 M1344.117,505.933h-18.859v9.44h18.859V505.933
									L1344.117,505.933z"/>
							</g>
							<rect x="1325.604" y="508.406" fill="#28AAE2" width="5.811" height="4.217"/>
							<text transform="matrix(1 0 0 1 1326.5479 510.1602)"><tspan x="0" y="0" fill="#FFFFFF" font-family="'Helvetica'" font-size="1.5676">1.33</tspan><tspan x="0" y="1.881" fill="#FFFFFF" font-family="'Helvetica'" font-size="1.5676">kWh</tspan></text>
						</g>
						<g>
							<g>
								<rect x="1306.833" y="515.294" fill="#95D4F5" width="18.532" height="9.113"/>
								<path fill="#1D75BC" d="M1325.202,515.457v8.787h-18.206v-8.787H1325.202 M1325.528,515.131h-18.858v9.439h18.858V515.131
									L1325.528,515.131z"/>
							</g>
							<rect x="1307.014" y="517.604" fill="#28AAE2" width="5.812" height="4.217"/>
							<text transform="matrix(1 0 0 1 1307.959 519.3574)"><tspan x="0" y="0" fill="#FFFFFF" font-family="'Helvetica'" font-size="1.5676">1.33</tspan><tspan x="0" y="1.881" fill="#FFFFFF" font-family="'Helvetica'" font-size="1.5676">kWh</tspan></text>
						</g>
						<g>
							<g>
								<rect x="1325.421" y="515.294" fill="#95D4F5" width="18.533" height="9.113"/>
								<path fill="#1D75BC" d="M1343.791,515.457v8.787h-18.207v-8.787H1343.791 M1344.117,515.131h-18.859v9.439h18.859V515.131
									L1344.117,515.131z"/>
							</g>
							<rect x="1325.604" y="517.604" fill="#28AAE2" width="5.811" height="4.217"/>
							<text transform="matrix(1 0 0 1 1326.5479 519.3574)"><tspan x="0" y="0" fill="#FFFFFF" font-family="'Helvetica'" font-size="1.5676">1.33</tspan><tspan x="0" y="1.881" fill="#FFFFFF" font-family="'Helvetica'" font-size="1.5676">kWh</tspan></text>
						</g>
						<g>
							<g>
								<rect x="1306.833" y="524.493" fill="#95D4F5" width="18.532" height="9.111"/>
								<path fill="#1D75BC" d="M1325.202,524.656v8.785h-18.206v-8.785H1325.202 M1325.528,524.33h-18.858v9.438h18.858V524.33
									L1325.528,524.33z"/>
							</g>
							<rect x="1307.014" y="526.804" fill="#28AAE2" width="5.812" height="4.217"/>
							<text transform="matrix(1 0 0 1 1307.959 528.5557)"><tspan x="0" y="0" fill="#FFFFFF" font-family="'Helvetica'" font-size="1.5676">1.33</tspan><tspan x="0" y="1.881" fill="#FFFFFF" font-family="'Helvetica'" font-size="1.5676">kWh</tspan></text>
						</g>
						<g>
							<g>
								<rect x="1325.421" y="524.493" fill="#95D4F5" width="18.533" height="9.111"/>
								<path fill="#1D75BC" d="M1343.791,524.656v8.785h-18.207v-8.785H1343.791 M1344.117,524.33h-18.859v9.438h18.859V524.33
									L1344.117,524.33z"/>
							</g>
							<rect x="1325.604" y="526.804" fill="#28AAE2" width="5.811" height="4.217"/>
							<text transform="matrix(1 0 0 1 1326.5479 528.5557)"><tspan x="0" y="0" fill="#FFFFFF" font-family="'Helvetica'" font-size="1.5676">1.33</tspan><tspan x="0" y="1.881" fill="#FFFFFF" font-family="'Helvetica'" font-size="1.5676">kWh</tspan></text>
						</g>
					</g>
				</g>
			</g>
			<path fill="#FEDFC4" d="M1306.831,499.536l-4.631-4.632c-1.173-1.401-2.959-2.299-4.96-2.299c-3.539,0-6.406,2.795-6.406,6.242
				c0,1.375,0.457,2.644,1.228,3.674c0.214,0.284,0.46,0.545,0.718,0.79l-0.024,0.021l4.869,4.796
				c1.174,1.427,2.973,2.341,4.995,2.341c3.536,0,6.403-2.794,6.403-6.241C1309.022,502.356,1308.173,500.682,1306.831,499.536z"/>
			<path fill="#FEDFC4" d="M1306.831,483.708l-4.631-4.631c-1.173-1.401-2.959-2.299-4.96-2.299c-3.539,0-6.406,2.796-6.406,6.242
				c0,1.375,0.457,2.645,1.228,3.674c0.214,0.286,0.46,0.547,0.718,0.792l-0.024,0.021l4.869,4.795
				c1.174,1.427,2.973,2.342,4.995,2.342c3.536,0,6.403-2.795,6.403-6.241C1309.022,486.529,1308.173,484.854,1306.831,483.708z"/>
			<path fill="#FEDFC4" d="M1307.239,515.566l-4.631-4.631c-1.175-1.401-2.959-2.3-4.963-2.3c-3.537,0-6.404,2.794-6.404,6.243
				c0,1.371,0.455,2.643,1.229,3.674c0.213,0.285,0.457,0.544,0.716,0.79l-0.022,0.021l4.869,4.795
				c1.174,1.427,2.974,2.341,4.994,2.341c3.537,0,6.404-2.793,6.404-6.241C1309.431,518.387,1308.579,516.709,1307.239,515.566z"/>
			<path fill="#FEDFC4" d="M1366.81,526.214c0-5.185-0.927-9.968-2.489-13.838c-0.463-3.06-1.172-6.2-2.219-9.344
				c-3.944-13.958-6.677-16.992-8.193-21.239c-1.519-4.249-3.863-5.212-8.414-3.086c-4.553,2.121-6.455,8.546,2.042,20.077
				c1.058,1.433,1.883,3.255,2.53,5.319c-5.07,3.069-8.731,11.804-8.731,22.11c0,10.658,3.919,19.64,9.265,22.406l-0.332,9.637
				l11.094-0.978l0.931-13.28C1365.056,539.728,1366.81,533.346,1366.81,526.214z"/>
		</g>
	</g>
	<g>
		<g>
			<g>
				<path fill="#E3E4E5" d="M895.445,449.955c2.933,0.009,5.31,3.016,5.308,6.715l-0.161,81.215
					c-0.003,3.704-2.395,6.693-5.332,6.688l-117.505-0.226c-2.936-0.008-5.31-3.005-5.305-6.709l0.159-81.218
					c0.004-3.699,2.396-6.695,5.328-6.69L895.445,449.955z"/>
				<polygon fill="#FFFFFF" points="886.122,458.539 885.968,535.965 780.84,535.764 780.988,458.338 				"/>
				<path fill="#FFFFFF" d="M893.896,492.044c2.288,0.006,4.142,2.348,4.135,5.229c-0.007,2.883-1.862,5.217-4.15,5.212
					c-2.287-0.007-4.137-2.346-4.135-5.229C889.752,494.376,891.61,492.043,893.896,492.044z"/>
			</g>
		</g>
		<g>
			<rect x="785.692" y="467.029" fill="#029FC1" width="9.829" height="9.831"/>
			<rect x="795.336" y="467.029" fill="#262262" width="9.83" height="9.831"/>
			<rect x="804.983" y="467.029" fill="#029FC1" width="9.828" height="9.831"/>
			<rect x="814.627" y="467.029" fill="#262262" width="9.828" height="9.831"/>
			<rect x="824.27" y="467.029" fill="#029FC1" width="9.83" height="9.831"/>
			<rect x="833.914" y="467.029" fill="#029FC1" width="9.832" height="9.831"/>
			<rect x="843.561" y="467.029" fill="#029FC1" width="9.828" height="9.831"/>
			<rect x="853.204" y="467.029" fill="#262262" width="9.829" height="9.831"/>
			<rect x="862.849" y="467.029" fill="#262262" width="9.831" height="9.831"/>
			<rect x="872.493" y="467.029" fill="#029FC1" width="9.83" height="9.831"/>
			<rect x="785.692" y="476.861" fill="#262262" width="9.829" height="9.829"/>
			<rect x="795.336" y="476.861" fill="#029FC1" width="9.83" height="9.829"/>
			<rect x="804.983" y="476.861" fill="#216BB4" width="9.828" height="9.829"/>
			<rect x="814.627" y="476.861" fill="#029FC1" width="9.828" height="9.829"/>
			<rect x="824.27" y="476.861" fill="#40C5E8" width="9.83" height="9.829"/>
			<rect x="833.914" y="476.861" fill="#262262" width="9.832" height="9.829"/>
			<rect x="843.561" y="476.861" fill="#262262" width="9.828" height="9.829"/>
			<rect x="853.204" y="476.861" fill="#029FC1" width="9.829" height="9.829"/>
			<rect x="862.849" y="476.861" fill="#029FC1" width="9.831" height="9.829"/>
			<rect x="872.493" y="476.861" fill="#262262" width="9.83" height="9.829"/>
			<rect x="785.692" y="486.691" fill="#029FC1" width="9.829" height="9.829"/>
			<rect x="795.336" y="486.691" fill="#216BB4" width="9.83" height="9.829"/>
			<rect x="804.983" y="486.691" fill="#029FC1" width="9.828" height="9.829"/>
			<rect x="814.627" y="486.691" fill="#40C5E8" width="9.828" height="9.829"/>
			<rect x="824.27" y="486.691" fill="#40C5E8" width="9.83" height="9.829"/>
			<rect x="833.914" y="486.691" fill="#029FC1" width="9.832" height="9.829"/>
			<rect x="843.561" y="486.691" fill="#40C5E8" width="9.828" height="9.829"/>
			<rect x="853.204" y="486.691" fill="#262262" width="9.829" height="9.829"/>
			<rect x="862.849" y="486.691" fill="#216BB4" width="9.831" height="9.829"/>
			<rect x="872.493" y="486.691" fill="#40C5E8" width="9.83" height="9.829"/>
			<rect x="785.692" y="496.521" fill="#216BB4" width="9.829" height="9.831"/>
			<rect x="795.336" y="496.521" fill="#40C5E8" width="9.83" height="9.831"/>
			<rect x="804.983" y="496.521" fill="#40C5E8" width="9.828" height="9.831"/>
			<rect x="814.627" y="496.521" fill="#40C5E8" width="9.828" height="9.831"/>
			<rect x="824.27" y="496.521" fill="#216BB4" width="9.83" height="9.831"/>
			<rect x="833.914" y="496.521" fill="#40C5E8" width="9.832" height="9.831"/>
			<rect x="843.561" y="496.521" fill="#216BB4" width="9.828" height="9.831"/>
			<rect x="853.204" y="496.521" fill="#40C5E8" width="9.829" height="9.831"/>
			<rect x="862.849" y="496.521" fill="#029FC1" width="9.831" height="9.831"/>
			<rect x="872.493" y="496.521" fill="#216BB4" width="9.83" height="9.831"/>
			<rect x="785.692" y="506.352" fill="#40C5E8" width="9.829" height="9.828"/>
			<rect x="795.336" y="506.352" fill="#262262" width="9.83" height="9.828"/>
			<rect x="804.983" y="506.352" fill="#029FC1" width="9.828" height="9.828"/>
			<rect x="814.627" y="506.352" fill="#262262" width="9.828" height="9.828"/>
			<rect x="824.27" y="506.352" fill="#029FC1" width="9.83" height="9.828"/>
			<rect x="833.914" y="506.352" fill="#029FC1" width="9.832" height="9.828"/>
			<rect x="843.561" y="506.352" fill="#029FC1" width="9.828" height="9.828"/>
			<rect x="853.204" y="506.352" fill="#40C5E8" width="9.829" height="9.828"/>
			<rect x="862.849" y="506.352" fill="#262262" width="9.831" height="9.828"/>
			<rect x="872.493" y="506.352" fill="#029FC1" width="9.83" height="9.828"/>
			<rect x="785.692" y="516.183" fill="#262262" width="9.829" height="9.828"/>
			<rect x="795.336" y="516.183" fill="#029FC1" width="9.83" height="9.828"/>
			<rect x="804.983" y="516.183" fill="#262262" width="9.828" height="9.828"/>
			<rect x="814.627" y="516.183" fill="#029FC1" width="9.828" height="9.828"/>
			<rect x="824.27" y="516.183" fill="#40C5E8" width="9.83" height="9.828"/>
			<rect x="833.914" y="516.183" fill="#262262" width="9.832" height="9.828"/>
			<rect x="843.561" y="516.183" fill="#216BB4" width="9.828" height="9.828"/>
			<rect x="853.204" y="516.183" fill="#029FC1" width="9.829" height="9.828"/>
			<rect x="862.849" y="516.183" fill="#029FC1" width="9.831" height="9.828"/>
			<rect x="872.493" y="516.183" fill="#40C5E8" width="9.83" height="9.828"/>
		</g>
		<path fill="#FEDFC4" d="M931.241,523.054c-2.13-2.178-5.618-2.222-7.799-0.094c-1.708,1.668-2.098,4.174-1.162,6.229l-1.634-1.654
			c-0.161-0.226-0.335-0.446-0.535-0.647c-2.124-2.18-5.617-2.221-7.797-0.094c-1.676,1.637-2.084,4.078-1.214,6.112l-1.797-1.576
			c-0.019-0.019-0.034-0.04-0.052-0.06c-0.217-0.22-0.447-0.413-0.688-0.588l-0.568-0.497c0,0-0.025,0.03-0.071,0.084
			c-2.069-1.117-4.702-0.819-6.472,0.907c-1.881,1.835-2.164,4.685-0.843,6.833l-0.13,0.065l-16.691-17.099
			c-2.127-2.179-5.617-2.222-7.795-0.094c-2.18,2.127-2.223,5.618-0.096,7.796c0,0,25.071,25.091,26.427,26.52
			c1.357,1.429,1.741,2.941-1.804,2.076c-3.416-0.831-11.51-6.488-15.334-2.597c-1.994,2.027-2.089,6.295-0.104,8.331
			c0.236,0.241,29.428,11.702,37.335,14.804c0.433,0.329,0.902,0.631,1.412,0.894c2.923,1.505,6.146,1.336,8.114-0.2l0,0
			l0.003-0.002c0.283-0.22,0.539-0.471,0.767-0.746l17.805-17.381c2.247-1.689,2.654-5.191,1.072-8.337
			c0.024-0.026,0.055-0.06,0.078-0.083C947.855,546.418,931.241,523.054,931.241,523.054z"/>
	</g>
	<circle fill="#FFFFFF" stroke="#E5E5E4" stroke-width="6.8756" stroke-miterlimit="10" cx="771.798" cy="137.552" r="69.676"/>
	<g>
		<defs>
			<circle id="SVGID_3_" cx="771.798" cy="137.552" r="69.676"/>
		</defs>
		<clipPath id="SVGID_4_">
			<use xlink:href="#SVGID_3_"  overflow="visible"/>
		</clipPath>
		<path clip-path="url(#SVGID_4_)" fill="#414042" d="M802.969,161.019c-0.398-4.382-16.464-5.178-16.464-5.178l-8.643-0.166
			c-0.015-0.464-0.021-0.533-0.021-0.533l-20.747,0.399c0,0-16.066,0.796-16.467,5.179c-0.795,0.264-2.125,0.529-1.992,2.788
			c0.134,4.779-0.264,9.029,1.197,9.029c0.131,2.788-0.133,4.116,4.514,4.646c-0.403,0.403-0.088,1.496,0.543,1.539
			c2.474,0.165,12.664,0.479,21.469,0.357c6.544,0,14.572-0.21,25.02-0.21c7.066-0.11,8.143-0.28,7.872-1.387
			c4.647-0.531,4.384-1.858,4.515-4.647c1.461,0,1.062-4.249,1.195-9.028C805.092,161.55,803.764,161.284,802.969,161.019z"/>
		
			<line clip-path="url(#SVGID_4_)" fill="none" stroke="#939598" stroke-width="4.7756" stroke-miterlimit="10" x1="771.798" y1="62.787" x2="771.798" y2="126.27"/>
		<path clip-path="url(#SVGID_4_)" fill="#939598" d="M788.949,154.433c0,0-1.241-0.073-1.249-1.086
			c-0.007-1.016,1.132-1.097,1.132-1.097l-0.234-4.091l-4.692-0.542c0,0-0.09-6.676,0.092-11.006
			c0.18-4.331-1.715-5.323-1.715-5.323l-5.784-4.069v-2.639h-9.201v2.5l-5.981,4.208c0,0-1.896,0.993-1.714,5.323
			c0.18,4.33,0.089,11.006,0.089,11.006l-4.69,0.542l-0.236,4.12c0,0,1.083,0.082,1.137,1c0.053,0.919-1.262,1.178-1.262,1.178
			l-0.089,1.551l0.63,2.977c0,0,0.091,0.901,2.166,0.901c1.456,0,8.727,0,12.938,0c1.793,0,3.029,0,3.029,0
			c4.211,0,11.484,0,12.938,0c2.075,0,2.166-0.901,2.166-0.901l0.632-2.977L788.949,154.433z"/>
		<rect x="697.01" y="165.367" clip-path="url(#SVGID_4_)" fill="#414042" width="149.576" height="3.585"/>
	</g>
	<circle fill="none" stroke="#E5E5E4" stroke-width="6.8756" stroke-miterlimit="10" cx="771.798" cy="137.552" r="69.676"/>
</g>
<g id="Layer_5">
	<circle fill="#F37321" cx="196.452" cy="135.913" r="2.225"/>
	<circle fill="#F37321" cx="210.174" cy="135.913" r="2.225"/>
	<circle fill="#F37321" cx="223.896" cy="135.913" r="2.225"/>
	<circle fill="#F37321" cx="237.619" cy="135.913" r="2.225"/>
	<circle fill="#F37321" cx="251.341" cy="135.913" r="2.225"/>
	<circle fill="#F37321" cx="265.063" cy="135.913" r="2.225"/>
	<circle fill="#F37321" cx="278.785" cy="135.913" r="2.225"/>
	<circle fill="#F37321" cx="292.507" cy="135.913" r="2.225"/>
	<circle fill="#F37321" cx="306.229" cy="135.913" r="2.225"/>
	<circle fill="#F37321" cx="554.02" cy="125.59" r="2.225"/>
	<circle fill="#F37321" cx="567.794" cy="125.59" r="2.225"/>
	<circle fill="#F37321" cx="581.569" cy="125.59" r="2.225"/>
	<circle fill="#F37321" cx="595.343" cy="125.59" r="2.225"/>
	<circle fill="#F37321" cx="609.118" cy="125.59" r="2.225"/>
	<circle fill="#F37321" cx="622.892" cy="125.59" r="2.225"/>
	<circle fill="#F37321" cx="636.667" cy="125.59" r="2.225"/>
	<circle fill="#F37321" cx="650.441" cy="125.59" r="2.225"/>
	<circle fill="#F37321" cx="664.215" cy="125.59" r="2.225"/>
	<circle fill="#F37321" cx="677.99" cy="125.59" r="2.225"/>
	<circle fill="#F37321" cx="691.764" cy="125.59" r="2.225"/>
</g>
</svg>
