<svg id="Capa_1" data-name="Capa 1" xmlns="http://www.w3.org/2000/svg" xmlns:xlink="http://www.w3.org/1999/xlink" viewBox="0 0 359.37 363"><defs><style>.cls-1,.cls-19{fill:none;}.cls-2{clip-path:url(#clip-path);}.cls-3{fill:#147f84;}.cls-4{clip-path:url(#clip-path-2);}.cls-5{fill:#106b6b;}.cls-6{clip-path:url(#clip-path-3);}.cls-7{fill:url(#Degradado_sin_nombre_3);}.cls-8{fill:#309336;}.cls-9{fill:url(#Degradado_sin_nombre_3-2);}.cls-10{fill:#f9ba00;}.cls-11{clip-path:url(#clip-path-4);}.cls-12{clip-path:url(#clip-path-5);}.cls-13{fill:url(#Degradado_sin_nombre_3-3);}.cls-14{clip-path:url(#clip-path-6);}.cls-15,.cls-16{fill:#d3e474;}.cls-15{opacity:0.49;}.cls-16{opacity:0.33;}.cls-17{fill:#fff;}.cls-18{fill:url(#Degradado_sin_nombre_3-4);}.cls-19{stroke:#fff;stroke-miterlimit:10;stroke-width:8px;}.cls-20{fill:url(#Degradado_sin_nombre_3-5);}</style><clipPath id="clip-path"><circle class="cls-1" cx="179.68" cy="181.5" r="165.68"/></clipPath><clipPath id="clip-path-2"><path class="cls-1" d="M199.17,314.84q-9.39,7.1-19.54,13.66-13.73,8.88-28.89,16.8,8.77.75,17.75.75a209.16,209.16,0,0,0,38.61-3.58A192.67,192.67,0,0,0,201,320C200.43,318.26,199.81,316.54,199.17,314.84Z"/></clipPath><clipPath id="clip-path-3"><circle class="cls-1" cx="184.14" cy="179.2" r="166.85"/></clipPath><linearGradient id="Degradado_sin_nombre_3" x1="423.98" y1="144.26" x2="187.59" y2="93.53" gradientUnits="userSpaceOnUse"><stop offset="0" stop-color="#9cca2c"/><stop offset="1" stop-color="#3fa93b"/></linearGradient><linearGradient id="Degradado_sin_nombre_3-2" x1="420.84" y1="158.87" x2="184.45" y2="108.13" xlink:href="#Degradado_sin_nombre_3"/><clipPath id="clip-path-4"><path class="cls-1" d="M345.18,235.29c-17.38-23.43-35.14-40.42-51.67-52.72a235.94,235.94,0,0,1-26.15,58.61c-.41.65-.82,1.3-1.24,1.95A187.89,187.89,0,0,1,294,275.82a190.4,190.4,0,0,1,10.55,17.73A169.88,169.88,0,0,0,345.18,235.29Z"/></clipPath><clipPath id="clip-path-5"><path class="cls-1" d="M255.64,258.43a271.34,271.34,0,0,1-41.51,44.36q2.37,5.65,4.43,11.75A212,212,0,0,1,225,338.25a194.85,194.85,0,0,0,65.24-32.53A167.89,167.89,0,0,0,255.64,258.43Z"/></clipPath><linearGradient id="Degradado_sin_nombre_3-3" x1="227.98" y1="-1.04" x2="-30.83" y2="315.95" xlink:href="#Degradado_sin_nombre_3"/><clipPath id="clip-path-6"><path class="cls-1" d="M243.92,20.18S86.87-30-18.37,134.32c0,0-31.58,56.67-4.05,102,0,0,16.37,20.24,26.8-8.18,0,0,13.41-38.5,35.26-57.12,0,0-14-11.06-1.08-35.89L66.4,93.37a7,7,0,0,1,10.54-1.23l5.88,5.48L98.48,78.33a4.24,4.24,0,0,1,6.28-.33L108,81.29a6,6,0,0,1,.59,7.8L95,107.61,112.77,123l14.29-17.8a4.72,4.72,0,0,1,7-.43l3.76,3.66a4.72,4.72,0,0,1,.42,6.3l-13,16.63,3.6,3.38a7,7,0,0,1,.63,9.49L99.55,180.74s-20.78,19.69-45.33,4c0,0-46.69,40.21-62.07,154.36,0,0,4.05-34.81,25.91-67.6,0,0,48,36.83,99.84,10.39,0,0,62.06-28.07,78.26-131.69C196.16,150.24,205.33,32.59,243.92,20.18Z"/></clipPath><linearGradient id="Degradado_sin_nombre_3-4" x1="55.85" y1="259.76" x2="145.55" y2="174.33" xlink:href="#Degradado_sin_nombre_3"/><linearGradient id="Degradado_sin_nombre_3-5" x1="28.99" y1="297.15" x2="70.3" y2="297.15" xlink:href="#Degradado_sin_nombre_3"/></defs><g class="cls-2"><path class="cls-3" d="M199.17,314.84q-9.39,7.1-19.54,13.66-13.73,8.88-28.89,16.8,8.77.75,17.75.75a209.16,209.16,0,0,0,38.61-3.58A192.67,192.67,0,0,0,201,320C200.43,318.26,199.81,316.54,199.17,314.84Z"/><g class="cls-4"><path class="cls-5" d="M320.82,206.58S270,401,96.4,324.24c0,0-5.32,39.86,0,42.29S181.86,372.19,211,373s29.15-14.57,65.58-18.62,106.05-74.47,106.05-74.47l-8.1-45.34Z"/></g><g class="cls-6"><path class="cls-7" d="M261.09,142.9a196.39,196.39,0,0,1,20.19,9.82q8.57,4.78,16.87,10.5a235.11,235.11,0,0,1,25,19.93,275.46,275.46,0,0,1,29.09,31.16,155.91,155.91,0,0,0,5-39.29c0-69.5-47.62-128.09-113.32-154.84-33.67,12.59-43.44,76.6-46.26,109.74C206.3,129.6,230.42,130.14,261.09,142.9Z"/><path class="cls-8" d="M197.66,129.92S215-.67,285.45,50.77c0,0-18.18-24.25-19.4-25.46s-35.62-13-35.62-13L189.55,69l2,60.9Z"/><path class="cls-3" d="M195.44,271a111.59,111.59,0,0,1,10.2,14.7,250.18,250.18,0,0,0,36-39.28q-4.29-3.32-8.84-6.43a185.54,185.54,0,0,0-55.45-25.65A178,178,0,0,1,159.11,245C173,249.84,185.2,258.57,195.44,271Z"/><path class="cls-3" d="M127.69,304.51a120.78,120.78,0,0,1,15.16,24,330.77,330.77,0,0,0,48.46-31c-11-20-26.89-33-45-37.55-15.38,15.83-28,21.55-28,21.55a89.07,89.07,0,0,1-10.94,4.71A87.17,87.17,0,0,1,127.69,304.51Z"/><path class="cls-3" d="M252,231.15a216.79,216.79,0,0,0,25.44-59.42,178,178,0,0,0-22.27-11.42c-31.58-13.4-55.48-12.17-58.56-11.94,0,1,0,1.5,0,1.5a250.19,250.19,0,0,1-12,47.35,203.47,203.47,0,0,1,58,27.12Q247.34,227.63,252,231.15Z"/><path class="cls-3" d="M76.7,291.47l.16-.38c-33.41-.74-58.43-19.93-58.43-19.93-.95,1.43-1.86,2.85-2.74,4.28,24.94,31.11,61.18,54.3,103.24,64.64,2.53-1.12,5-2.25,7.5-3.41C115,312.94,96.93,296.12,76.7,291.47Z"/><path class="cls-3" d="M345.18,235.29c-17.38-23.43-35.14-40.42-51.67-52.72a235.94,235.94,0,0,1-26.15,58.61c-.41.65-.82,1.3-1.24,1.95A187.89,187.89,0,0,1,294,275.82a190.4,190.4,0,0,1,10.55,17.73A169.88,169.88,0,0,0,345.18,235.29Z"/><path class="cls-3" d="M255.64,258.43a271.34,271.34,0,0,1-41.51,44.36q2.37,5.65,4.43,11.75A212,212,0,0,1,225,338.25a194.85,194.85,0,0,0,65.24-32.53A167.89,167.89,0,0,0,255.64,258.43Z"/><path class="cls-9" d="M266.59,81.36a67.49,67.49,0,0,0-64.75,48.5c10.9.09,32.6,1.95,59.25,13a196.39,196.39,0,0,1,20.19,9.82q8.57,4.78,16.87,10.5a235.11,235.11,0,0,1,25,19.93l1,.91a67.47,67.47,0,0,0-57.54-102.7Z"/><path class="cls-10" d="M266.59,81.36a67.49,67.49,0,0,0-64.75,48.5c10.9.09,32.6,1.95,59.25,13a196.39,196.39,0,0,1,20.19,9.82q8.57,4.78,16.87,10.5a235.11,235.11,0,0,1,25,19.93l1,.91a67.47,67.47,0,0,0-57.54-102.7Z"/><g class="cls-11"><path class="cls-5" d="M320.82,206.58S270,401,96.4,324.24c0,0-5.32,39.86,0,42.29S181.86,372.19,211,373s29.15-14.57,65.58-18.62,106.05-74.47,106.05-74.47l-8.1-45.34Z"/></g><g class="cls-12"><path class="cls-5" d="M320.82,206.58S270,401,96.4,324.24c0,0-5.32,39.86,0,42.29S181.86,372.19,211,373s29.15-14.57,65.58-18.62,106.05-74.47,106.05-74.47l-8.1-45.34Z"/></g><path class="cls-13" d="M46.53,61.5C-10,113.93-1.79,192.71,5,226.35l.14-.36c2.3,11.42,5,21.39,7.31,29.08C4.4,276.68-3,304-7.66,337.76c1-6.75,6.42-37.27,25.72-66.22,0,0,48,36.83,99.84,10.39,0,0,62.06-28.07,78.26-131.69,0,0,9.17-117.65,47.76-130.06C243.92,20.18,141.41-12.58,46.53,61.5Z"/><g class="cls-14"><path class="cls-15" d="M213.16-24.35s73.66,50.19,73.66,55.86-12.95,37.24-19.56,39.67-50.87,123-59.23,132.73-26.31,0-26.31,0c11-47.15,6.52-99.91,1.89-131.79-2.79-19.2-2.75-50.37,10.12-64.9Z"/><path class="cls-16" d="M219.25,47.68S162,20.75,41.17,65.8L72.56-4.65S184.28-51.06,185.09-51.06,243.92-7.89,243.92-7.89,282,23.41,282,32.05,219.25,47.68,219.25,47.68Z"/></g></g><path class="cls-17" d="M145.15,335.48v-138H159a6.63,6.63,0,0,0,6.63-6.64h0a6.64,6.64,0,0,0-1.94-4.69l-94-94L-6.07,167.79-62.16,111.7l-39.46,39.45V140.28h-18.55v28.58L-131,179.73l4.52,261.7Z"/><path class="cls-17" d="M119.48,152.07v-22.2a7.58,7.58,0,0,1,7.59-7.58h7.86a7.58,7.58,0,0,1,7.59,7.58V179.2Z"/><rect class="cls-18" x="73.42" y="184.35" width="49.83" height="69.89" rx="5.81"/><line class="cls-19" x1="98.34" y1="269.13" x2="98.34" y2="172.87"/><line class="cls-19" x1="133.61" y1="221" x2="55.46" y2="221"/><path class="cls-20" d="M29,257.31H57.17A13.13,13.13,0,0,1,70.3,270.44V337a0,0,0,0,1,0,0H29a0,0,0,0,1,0,0V257.31A0,0,0,0,1,29,257.31Z"/></g></svg>